<?xml version="1.0" encoding="UTF-8"?>
<svg xmlns="http://www.w3.org/2000/svg" xmlns:xlink="http://www.w3.org/1999/xlink" width="24pt" height="24pt" viewBox="0 0 24 24" version="1.1">
<g id="surface1">
<path style=" stroke:none;fill-rule:nonzero;fill:rgb(97.647059%,78.823529%,82.352941%);fill-opacity:1;" d="M 2.792969 23.910156 C 2.101562 23.738281 1.484375 23.375 0.949219 22.820312 C -0.03125 21.804688 0 22.148438 0 11.996094 L 0 2.789062 L 0.394531 2.003906 C 0.835938 1.125 1.445312 0.59375 2.40625 0.257812 C 3.378906 -0.0859375 20.621094 -0.0859375 21.59375 0.257812 C 22.554688 0.59375 23.164062 1.125 23.605469 2.003906 L 24 2.789062 L 24 11.996094 C 24 22.148438 24.03125 21.804688 23.050781 22.820312 C 22.785156 23.097656 22.292969 23.46875 21.960938 23.648438 C 21.363281 23.96875 21.273438 23.972656 12.300781 23.996094 C 7.320312 24.011719 3.042969 23.972656 2.792969 23.910156 Z M 9.878906 18.140625 C 10.074219 18 10.128906 17.832031 10.066406 17.574219 C 9.96875 17.183594 6.652344 13.839844 6.363281 13.839844 C 6.265625 13.839844 6.054688 13.972656 5.886719 14.140625 C 5.621094 14.402344 5.585938 14.640625 5.585938 16.058594 C 5.585938 18.355469 5.574219 18.34375 7.828125 18.34375 C 9.074219 18.34375 9.683594 18.28125 9.878906 18.140625 Z M 18.179688 18.007812 C 18.351562 17.765625 18.414062 17.296875 18.414062 16.246094 L 18.414062 14.820312 L 13.847656 10.277344 L 9.277344 5.734375 L 5.878906 5.734375 L 5.71875 6.144531 C 5.632812 6.371094 5.582031 7.148438 5.609375 7.871094 L 5.660156 9.183594 L 10.261719 13.761719 L 14.867188 18.34375 L 16.40625 18.34375 C 17.824219 18.34375 17.964844 18.316406 18.179688 18.007812 Z M 18.257812 9.796875 C 18.488281 9.371094 18.460938 6.300781 18.226562 5.992188 C 18.070312 5.785156 17.714844 5.738281 16.191406 5.714844 C 13.253906 5.671875 13.195312 5.953125 15.644531 8.359375 C 17.460938 10.144531 17.933594 10.402344 18.257812 9.796875 Z M 18.257812 9.796875 "/>
<path style=" stroke:none;fill-rule:nonzero;fill:rgb(96.862745%,73.333333%,77.254902%);fill-opacity:1;" d="M 2.714844 23.757812 C 1.679688 23.445312 0.886719 22.78125 0.355469 21.796875 C 0.0898438 21.300781 0.0742188 20.757812 0.0742188 12.039062 C 0.0742188 2.878906 0.078125 2.800781 0.398438 2.203125 C 0.839844 1.382812 1.457031 0.789062 2.222656 0.449219 C 2.828125 0.183594 3.355469 0.167969 11.992188 0.175781 C 17.941406 0.179688 21.269531 0.238281 21.542969 0.339844 C 22.425781 0.667969 23.089844 1.269531 23.507812 2.113281 L 23.925781 2.957031 L 23.96875 11.714844 C 24.019531 21.847656 24.035156 21.671875 22.804688 22.859375 C 22.3125 23.335938 21.875 23.601562 21.394531 23.722656 C 20.597656 23.921875 3.363281 23.953125 2.714844 23.757812 Z M 9.960938 18.191406 C 10.128906 18.027344 10.265625 17.78125 10.265625 17.644531 C 10.265625 17.507812 9.46875 16.59375 8.5 15.617188 C 7.144531 14.25 6.640625 13.839844 6.339844 13.839844 C 5.65625 13.839844 5.585938 14.054688 5.585938 16.113281 C 5.585938 18.535156 5.542969 18.492188 7.957031 18.492188 C 9.460938 18.492188 9.695312 18.457031 9.960938 18.191406 Z M 17.917969 18.398438 C 18.410156 18.269531 18.613281 17.472656 18.535156 15.984375 L 18.46875 14.714844 L 9.273438 5.582031 L 7.609375 5.582031 C 6.519531 5.582031 5.886719 5.644531 5.765625 5.761719 C 5.648438 5.882812 5.585938 6.511719 5.585938 7.605469 L 5.585938 9.265625 L 10.230469 13.878906 L 14.878906 18.492188 L 16.230469 18.492188 C 16.976562 18.488281 17.734375 18.449219 17.917969 18.398438 Z M 18.378906 9.785156 C 18.648438 9.269531 18.574219 6.179688 18.285156 5.832031 C 18.109375 5.625 17.757812 5.582031 16.15625 5.582031 C 14.441406 5.582031 14.207031 5.613281 13.96875 5.875 C 13.796875 6.0625 13.730469 6.296875 13.789062 6.515625 C 13.835938 6.707031 14.652344 7.628906 15.605469 8.5625 C 17.089844 10.019531 17.394531 10.25 17.757812 10.210938 C 18.027344 10.179688 18.253906 10.023438 18.378906 9.785156 Z M 18.378906 9.785156 "/>
<path style=" stroke:none;fill-rule:nonzero;fill:rgb(95.686275%,60.392157%,65.882353%);fill-opacity:1;" d="M 2.984375 23.757812 C 1.945312 23.550781 1.03125 22.851562 0.53125 21.875 L 0.0742188 20.988281 L 0.121094 12.121094 C 0.148438 7.246094 0.230469 3.011719 0.308594 2.714844 C 0.53125 1.871094 1.25 1.007812 2.0625 0.609375 L 2.792969 0.253906 L 11.546875 0.207031 C 17.621094 0.171875 20.542969 0.210938 21.082031 0.328125 C 22.078125 0.539062 22.992188 1.199219 23.429688 2.015625 L 23.773438 2.65625 L 23.773438 21.445312 L 23.320312 22.167969 C 23.003906 22.667969 22.613281 23.03125 22.039062 23.355469 L 21.207031 23.820312 L 12.378906 23.847656 C 7.519531 23.859375 3.292969 23.820312 2.984375 23.757812 Z M 10.027344 18.257812 C 10.570312 17.71875 10.34375 17.308594 8.484375 15.460938 C 6.609375 13.59375 6.300781 13.429688 5.734375 13.988281 C 5.46875 14.253906 5.433594 14.488281 5.433594 16.058594 C 5.433594 18.550781 5.378906 18.492188 7.847656 18.492188 C 9.410156 18.492188 9.835938 18.445312 10.027344 18.257812 Z M 18.332031 18.160156 C 18.507812 17.910156 18.566406 17.433594 18.566406 16.269531 L 18.566406 14.710938 L 14.101562 10.234375 C 11.644531 7.773438 9.441406 5.679688 9.203125 5.582031 C 8.9375 5.472656 8.214844 5.421875 7.316406 5.453125 C 5.449219 5.523438 5.433594 5.542969 5.433594 7.671875 L 5.433594 9.253906 L 10.078125 13.875 L 14.722656 18.492188 L 16.410156 18.492188 C 17.980469 18.492188 18.113281 18.46875 18.332031 18.160156 Z M 18.265625 10.085938 C 18.535156 9.816406 18.566406 9.585938 18.566406 7.9375 C 18.566406 5.445312 18.632812 5.519531 16.308594 5.457031 C 14.214844 5.398438 13.734375 5.558594 13.734375 6.304688 C 13.734375 6.640625 14.105469 7.085938 15.597656 8.554688 C 16.621094 9.5625 17.574219 10.386719 17.710938 10.386719 C 17.847656 10.386719 18.097656 10.25 18.265625 10.085938 Z M 18.265625 10.085938 "/>
<path style=" stroke:none;fill-rule:nonzero;fill:rgb(94.509804%,46.27451%,53.72549%);fill-opacity:1;" d="M 2.527344 23.53125 C 1.660156 23.222656 0.972656 22.625 0.582031 21.835938 L 0.226562 21.121094 L 0.183594 12.714844 C 0.15625 7.574219 0.199219 3.929688 0.292969 3.335938 C 0.488281 2.074219 1.027344 1.300781 2.09375 0.746094 L 2.902344 0.328125 L 21.078125 0.328125 L 21.894531 0.742188 C 22.988281 1.292969 23.492188 2.035156 23.699219 3.40625 C 23.804688 4.082031 23.84375 7.441406 23.816406 12.789062 L 23.773438 21.121094 L 23.417969 21.835938 C 23.027344 22.625 22.339844 23.222656 21.472656 23.53125 C 20.644531 23.828125 3.355469 23.828125 2.527344 23.53125 Z M 10.085938 18.335938 C 10.722656 17.746094 10.542969 17.402344 8.542969 15.367188 C 6.902344 13.695312 6.503906 13.445312 5.929688 13.71875 C 5.382812 13.984375 5.242188 14.628906 5.308594 16.519531 C 5.386719 18.621094 5.414062 18.644531 7.914062 18.644531 C 9.558594 18.644531 9.789062 18.609375 10.085938 18.335938 Z M 18.285156 18.359375 C 18.59375 18.109375 18.644531 17.914062 18.695312 16.851562 C 18.722656 16.183594 18.707031 15.414062 18.65625 15.148438 C 18.582031 14.769531 17.5625 13.65625 13.996094 10.046875 L 9.433594 5.433594 L 7.671875 5.433594 C 5.296875 5.433594 5.210938 5.523438 5.304688 7.980469 L 5.359375 9.339844 L 14.726562 18.644531 L 16.328125 18.644531 C 17.675781 18.644531 17.984375 18.597656 18.285156 18.359375 Z M 18.203125 10.269531 C 18.589844 10.015625 18.71875 9.429688 18.71875 7.929688 C 18.71875 6.265625 18.589844 5.679688 18.199219 5.53125 C 18.070312 5.484375 17.113281 5.429688 16.074219 5.417969 C 14.445312 5.394531 14.140625 5.429688 13.882812 5.660156 C 13.269531 6.214844 13.46875 6.585938 15.433594 8.546875 C 17.261719 10.371094 17.671875 10.625 18.203125 10.269531 Z M 18.203125 10.269531 "/>
<path style=" stroke:none;fill-rule:nonzero;fill:rgb(95.294118%,31.764706%,41.176471%);fill-opacity:1;" d="M 3.546875 23.605469 C 2.089844 23.429688 1.257812 22.90625 0.660156 21.796875 C 0.394531 21.296875 0.378906 20.773438 0.378906 12.113281 L 0.378906 2.957031 L 0.726562 2.25 C 1.109375 1.476562 2.121094 0.695312 2.925781 0.550781 C 3.183594 0.503906 7.441406 0.484375 12.390625 0.507812 L 21.382812 0.554688 L 22.113281 1.003906 C 22.636719 1.324219 22.957031 1.671875 23.234375 2.203125 L 23.621094 2.957031 L 23.667969 11.738281 C 23.703125 18.003906 23.667969 20.691406 23.542969 21.121094 C 23.242188 22.179688 22.695312 22.835938 21.761719 23.273438 L 20.90625 23.671875 L 12.679688 23.695312 C 8.15625 23.707031 4.046875 23.667969 3.546875 23.605469 Z M 9.871094 18.625 C 10.074219 18.53125 10.324219 18.261719 10.421875 18.027344 C 10.667969 17.4375 10.351562 16.976562 8.410156 15.078125 C 7.050781 13.75 6.769531 13.539062 6.335938 13.539062 C 5.382812 13.539062 5.28125 13.78125 5.28125 16.089844 C 5.28125 18.785156 5.261719 18.761719 7.878906 18.78125 C 8.785156 18.789062 9.660156 18.71875 9.871094 18.625 Z M 18.398438 18.433594 C 18.6875 18.171875 18.71875 17.984375 18.71875 16.363281 L 18.71875 14.582031 L 14.074219 9.929688 L 9.433594 5.277344 L 7.675781 5.277344 C 5.214844 5.285156 5.203125 5.292969 5.214844 7.605469 L 5.226562 9.351562 L 9.667969 13.789062 C 12.113281 16.226562 14.316406 18.355469 14.566406 18.515625 C 14.953125 18.765625 15.242188 18.800781 16.550781 18.761719 C 17.804688 18.726562 18.140625 18.667969 18.398438 18.433594 Z M 18.40625 10.246094 C 18.804688 9.847656 18.90625 9.1875 18.84375 7.382812 C 18.773438 5.296875 18.753906 5.28125 16.105469 5.28125 C 14.289062 5.28125 14.105469 5.308594 13.785156 5.609375 C 13.085938 6.257812 13.261719 6.597656 15.359375 8.648438 C 17.414062 10.660156 17.789062 10.855469 18.40625 10.246094 Z M 18.40625 10.246094 "/>
<path style=" stroke:none;fill-rule:nonzero;fill:rgb(98.039216%,27.45098%,36.078431%);fill-opacity:1;" d="M 2.839844 23.386719 C 1.933594 23.144531 1.175781 22.566406 0.8125 21.839844 C 0.542969 21.300781 0.527344 20.796875 0.527344 12.335938 C 0.527344 5.601562 0.574219 3.253906 0.71875 2.785156 C 0.957031 2.003906 2.019531 1.007812 2.851562 0.785156 C 3.269531 0.671875 6.261719 0.632812 12.335938 0.660156 L 21.207031 0.703125 L 21.941406 1.132812 C 22.523438 1.472656 22.753906 1.734375 23.070312 2.40625 L 23.472656 3.253906 L 23.472656 21.269531 L 23.128906 21.90625 C 22.726562 22.65625 21.933594 23.21875 20.980469 23.4375 C 19.9375 23.671875 3.746094 23.628906 2.839844 23.386719 Z M 10.265625 18.492188 C 10.457031 18.300781 10.566406 17.992188 10.566406 17.636719 C 10.566406 17.125 10.417969 16.929688 8.710938 15.234375 C 7.066406 13.597656 6.796875 13.390625 6.34375 13.390625 C 6.023438 13.390625 5.699219 13.511719 5.480469 13.714844 C 5.152344 14.023438 5.132812 14.144531 5.132812 16.023438 C 5.132812 17.796875 5.164062 18.042969 5.445312 18.398438 C 5.757812 18.792969 5.769531 18.792969 7.859375 18.792969 C 9.761719 18.792969 9.992188 18.765625 10.265625 18.492188 Z M 18.519531 18.464844 C 18.847656 18.160156 18.867188 18.027344 18.867188 16.339844 L 18.867188 14.539062 L 14.378906 10.03125 C 11.90625 7.546875 9.785156 5.433594 9.660156 5.328125 C 9.382812 5.101562 6.007812 5.058594 5.589844 5.277344 C 5.1875 5.492188 4.980469 6.234375 4.984375 7.445312 C 4.992188 9.273438 5.121094 9.578125 6.445312 10.808594 C 7.09375 11.414062 9.191406 13.457031 11.105469 15.351562 L 14.585938 18.792969 L 16.378906 18.792969 C 18.007812 18.792969 18.199219 18.765625 18.519531 18.464844 Z M 18.519531 10.324219 C 18.933594 9.96875 18.945312 9.925781 18.992188 8.136719 C 19.046875 6.21875 18.910156 5.546875 18.414062 5.28125 C 18.269531 5.203125 17.214844 5.128906 16.070312 5.113281 L 13.988281 5.085938 L 13.636719 5.492188 C 12.921875 6.316406 13.078125 6.640625 15.214844 8.765625 C 17.355469 10.898438 17.675781 11.046875 18.519531 10.324219 Z M 18.519531 10.324219 "/>
<path style=" stroke:none;fill-rule:nonzero;fill:rgb(98.039216%,20.784314%,34.117647%);fill-opacity:1;" d="M 3.6875 23.449219 C 2.4375 23.3125 1.878906 23.058594 1.242188 22.335938 C 0.492188 21.488281 0.398438 20.664062 0.503906 15.921875 C 0.554688 13.636719 0.664062 11.59375 0.75 11.378906 C 0.882812 11.027344 0.976562 10.988281 1.667969 10.988281 C 2.089844 10.988281 2.566406 10.917969 2.726562 10.832031 C 2.929688 10.722656 3.113281 10.726562 3.335938 10.84375 C 3.570312 10.96875 3.761719 10.964844 4.082031 10.832031 C 4.429688 10.691406 4.699219 10.703125 5.441406 10.890625 C 6.527344 11.164062 7.355469 11.851562 11.585938 16.003906 C 13.015625 17.40625 14.339844 18.640625 14.527344 18.746094 C 14.738281 18.859375 15.480469 18.933594 16.480469 18.9375 C 17.972656 18.941406 18.128906 18.914062 18.519531 18.582031 C 18.929688 18.230469 18.945312 18.164062 18.992188 16.570312 C 19.054688 14.628906 18.980469 14.433594 17.738281 13.238281 C 17.269531 12.785156 16.675781 12.121094 16.425781 11.761719 C 16.011719 11.171875 15.988281 11.085938 16.199219 10.875 C 16.394531 10.679688 16.539062 10.671875 17.128906 10.820312 C 17.511719 10.917969 17.894531 10.953125 17.976562 10.902344 C 18.265625 10.722656 21.589844 10.734375 21.738281 10.914062 C 21.820312 11.011719 21.839844 11.132812 21.785156 11.1875 C 21.730469 11.242188 21.875 11.285156 22.109375 11.285156 C 22.34375 11.285156 22.621094 11.167969 22.726562 11.023438 C 23.144531 10.464844 23.28125 11.046875 23.40625 13.941406 C 23.605469 18.417969 23.582031 20.277344 23.304688 21.203125 C 23.015625 22.175781 22.222656 23.027344 21.355469 23.304688 C 20.660156 23.527344 5.515625 23.652344 3.6875 23.449219 Z M 10.019531 18.773438 C 10.488281 18.5625 10.785156 17.878906 10.648438 17.332031 C 10.585938 17.082031 9.8125 16.1875 8.699219 15.078125 C 7.039062 13.421875 6.800781 13.238281 6.324219 13.238281 C 5.726562 13.238281 5.1875 13.644531 5.046875 14.203125 C 4.996094 14.402344 4.976562 15.386719 5.007812 16.390625 C 5.054688 18.179688 5.066406 18.226562 5.480469 18.582031 C 5.878906 18.921875 6.015625 18.941406 7.773438 18.941406 C 8.84375 18.941406 9.804688 18.871094 10.019531 18.773438 Z M 10.019531 18.773438 "/>
</g>
</svg>
