<?xml version="1.0" encoding="UTF-8" standalone="no"?>
<!-- Created with Inkscape (http://www.inkscape.org/) -->

<svg
   xmlns:dc="http://purl.org/dc/elements/1.1/"
   xmlns:cc="http://creativecommons.org/ns#"
   xmlns:rdf="http://www.w3.org/1999/02/22-rdf-syntax-ns#"
   xmlns:svg="http://www.w3.org/2000/svg"
   xmlns="http://www.w3.org/2000/svg"
   xmlns:sodipodi="http://sodipodi.sourceforge.net/DTD/sodipodi-0.dtd"
   xmlns:inkscape="http://www.inkscape.org/namespaces/inkscape"
   version="1.1"
   id="svg3807"
   width="64"
   height="64"
   viewBox="0 0 63.999999 64"
   sodipodi:docname="First.svg"
   inkscape:version="0.92.2 5c3e80d, 2017-08-06">
  <metadata
     id="metadata3813">
    <rdf:RDF>
      <cc:Work
         rdf:about="">
        <dc:format>image/svg+xml</dc:format>
        <dc:type
           rdf:resource="http://purl.org/dc/dcmitype/StillImage" />
        <dc:title></dc:title>
      </cc:Work>
    </rdf:RDF>
  </metadata>
  <defs
     id="defs3811" />
  <sodipodi:namedview
     pagecolor="#ffffff"
     bordercolor="#666666"
     borderopacity="1"
     objecttolerance="10"
     gridtolerance="10"
     guidetolerance="10"
     inkscape:pageopacity="0"
     inkscape:pageshadow="2"
     inkscape:window-width="1205"
     inkscape:window-height="757"
     id="namedview3809"
     showgrid="false"
     inkscape:zoom="2.38"
     inkscape:cx="54.333336"
     inkscape:cy="55"
     inkscape:window-x="0"
     inkscape:window-y="0"
     inkscape:window-maximized="0"
     inkscape:current-layer="svg3807"
     showborder="true" />
  <g
     id="g3840"
     transform="matrix(0.60376846,0,0,0.60048833,-1.0584403,-0.97871256)">
    <path
       style="fill:#f9c9d2;stroke-width:0.66666669"
       d="M 14.086836,107.80919 C 11.02819,107.0456 8.304077,105.42707 5.9539565,102.97705 1.6204276,98.459302 1.7535022,99.982248 1.7535022,54.90581 V 14.015294 l 1.7355877,-3.48287 C 5.4368369,6.6238044 8.1397944,4.2637058 12.3831,2.7665802 c 4.295743,-1.5156263 80.445065,-1.5156263 84.740805,0 4.243305,1.4971256 6.946265,3.8572242 8.894015,7.7658438 l 1.73559,3.48287 V 54.90581 c 0,45.076238 0.1332,43.551772 -4.20046,48.07278 -1.17308,1.22379 -3.33288,2.87379 -4.799545,3.66666 -2.642013,1.42826 -3.036467,1.44261 -42.666668,1.55242 -22.000001,0.0609 -40.900001,-0.11386 -42.000001,-0.38848 z m 31.30422,-25.618628 c 0.859472,-0.62846 1.104642,-1.378707 0.820501,-2.51082 -0.436015,-1.73722 -15.079316,-16.592907 -16.355689,-16.592907 -0.422967,0 -1.369032,0.6 -2.102365,1.333333 -1.168381,1.168381 -1.333333,2.222222 -1.333333,8.518327 0,10.201613 -0.05203,10.14834 9.910383,10.14834 5.508995,0 8.198639,-0.26606 9.060503,-0.896273 z m 36.657982,-0.5854 c 0.762653,-1.088847 1.0378,-3.1624 1.0378,-7.821134 V 67.444562 L 62.907975,47.265697 42.729113,27.086835 h -7.504306 -7.504305 l -0.704096,1.833333 c -0.387254,1.008334 -0.604828,4.456796 -0.4835,7.663251 l 0.220597,5.829917 20.329235,20.33675 20.329233,20.336749 h 6.799633 c 6.270801,0 6.880341,-0.115233 7.837434,-1.481673 z m 0.34768,-36.4745 c 1.005487,-1.878771 0.889833,-15.523608 -0.143213,-16.896322 -0.687654,-0.913758 -2.25788,-1.127688 -8.982274,-1.223761 -12.987413,-0.185555 -13.241944,1.048527 -2.421287,11.739513 8.025367,7.929192 10.103421,9.077493 11.546774,6.38057 z"
       id="path3854"
       inkscape:connector-curvature="0" />
    <path
       style="fill:#f7bbc5;stroke-width:0.66666669"
       d="M 13.749187,107.13061 C 9.1769437,105.73979 5.6640499,102.80313 3.3296099,98.420168 2.1557872,96.216295 2.0868355,93.812068 2.0868355,55.086835 c 0,-40.676119 0.01132,-41.021135 1.4329797,-43.675404 C 5.465316,7.7791389 8.196753,5.1398394 11.57189,3.6309705 c 2.665994,-1.1918439 4.998967,-1.258166 43.14645,-1.2265731 26.273885,0.021759 40.974018,0.2756425 42.181612,0.7285099 3.905178,1.4645035 6.839888,4.1264329 8.679818,7.8730287 l 1.8404,3.747566 0.19219,38.908268 c 0.22221,44.984745 0.30187,44.217458 -5.13781,49.48384 -2.18169,2.11219 -4.111365,3.29849 -6.235452,3.83334 -3.509253,0.88364 -79.623513,1.02358 -82.489911,0.15166 z M 45.753504,82.420168 c 0.733333,-0.733333 1.333333,-1.830533 1.333333,-2.43822 0,-0.607686 -3.509041,-4.657686 -7.797869,-9 -5.98879,-6.063474 -8.20049,-7.895113 -9.533334,-7.895113 -3.017014,0 -3.335464,0.96386 -3.335464,10.095533 0,10.76528 -0.192504,10.571134 10.481671,10.571134 6.62944,0 7.675968,-0.15764 8.851663,-1.333334 z m 35.138167,0.920594 c 2.17132,-0.58216 3.070794,-4.125054 2.72412,-10.729927 L 83.319638,66.968284 63.014167,46.694226 42.708699,26.420168 h -7.344265 c -4.823317,0 -7.618868,0.274604 -8.144264,0.8 -0.52588,0.52588 -0.8,3.329123 -0.8,8.181053 v 7.381053 l 20.524858,20.485614 20.524856,20.485614 5.975147,-0.0091 c 3.286327,-0.0053 6.637314,-0.186647 7.44664,-0.40364 z m 2.032794,-38.253927 c 1.193026,-2.289387 0.865273,-16.021939 -0.419254,-17.566493 -0.762513,-0.91686 -2.328206,-1.100174 -9.39668,-1.100174 -7.576916,0 -8.607837,0.139369 -9.66405,1.30647 -0.752666,0.831687 -1.042087,1.865278 -0.796406,2.844152 0.212264,0.845724 3.824257,4.930013 8.026649,9.076197 6.55798,6.470259 7.905747,7.507908 9.510974,7.322515 1.18236,-0.136554 2.189693,-0.82901 2.738767,-1.882667 z"
       id="path3852"
       inkscape:connector-curvature="0" />
    <path
       style="fill:#f49aa8;stroke-width:0.66666669"
       d="M 14.939916,107.13324 C 10.341443,106.21223 6.3081076,103.10236 4.0970483,98.772948 L 2.0868355,94.836802 2.2923781,55.461818 C 2.4054266,33.805577 2.7795399,15.008071 3.1237409,13.689581 4.101044,9.9459436 7.2805863,6.1042797 10.860262,4.3419727 L 14.086836,2.7535016 52.753504,2.5425317 c 26.826001,-0.1463658 39.723374,0.018013 42.117434,0.5367925 4.394267,0.9522148 8.425852,3.8690179 10.364462,7.4985748 l 1.51811,2.842269 v 41.718757 41.718757 l -2,3.210528 c -1.39133,2.23343 -3.11591,3.84072 -5.666672,5.28124 l -3.666666,2.07072 -39.000001,0.10491 c -21.450001,0.0577 -40.116116,-0.11863 -41.480255,-0.39184 z M 46.039218,82.705882 c 2.394049,-2.394047 1.400142,-4.2053 -6.816327,-12.421767 -8.282279,-8.282279 -9.648957,-9.017711 -12.136055,-6.530613 -1.182386,1.182386 -1.333333,2.222222 -1.333333,9.184993 0,11.06688 -0.248192,10.815007 10.65685,10.815007 6.912244,0 8.785002,-0.203754 9.628865,-1.04762 z m 36.676487,-0.434054 c 0.777273,-1.10972 1.0378,-3.216706 1.0378,-8.39324 V 66.967022 L 64.028224,47.08353 C 53.17932,36.14761 43.445909,26.845044 42.398423,26.411161 41.223949,25.924678 38.031194,25.71132 34.069266,25.854559 c -8.243122,0.298021 -8.315763,0.384045 -8.315763,9.847696 v 7.027247 l 20.512001,20.512 20.512,20.512 h 7.4502 c 6.943074,0 7.520834,-0.100854 8.488001,-1.481674 z m -0.295534,-35.85166 c 1.1889,-1.188902 1.333334,-2.222222 1.333334,-9.539246 0,-11.066726 0.301633,-10.733594 -9.975647,-11.017288 -9.233785,-0.25489 -11.357687,0.450614 -11.357687,3.772724 0,1.485594 1.627909,3.461505 8.226113,9.984632 4.524367,4.472881 8.724367,8.132512 9.333334,8.132512 0.608973,0 1.70722,-0.6 2.440553,-1.333334 z"
       id="path3850"
       inkscape:connector-curvature="0" />
    <path
       style="fill:#f17689;stroke-width:0.66666669"
       d="M 12.918815,106.13567 C 9.0783884,104.76515 6.0480128,102.11066 4.3217476,98.604962 L 2.7535022,95.420168 2.5601088,58.090273 C 2.4418285,35.259131 2.6279488,19.082424 3.0393122,16.440153 3.909812,10.848758 6.2929322,7.4120936 11.00768,4.9490794 l 3.564745,-1.8622445 h 40.137663 40.137664 l 3.61542,1.8333333 c 4.822218,2.4452887 7.044978,5.7486158 7.968728,11.8426318 0.45516,3.002717 0.63952,17.912729 0.5152,41.666667 l -0.19359,36.990701 -1.56825,3.184794 c -1.72627,3.505698 -4.75664,6.160188 -8.597068,7.530708 -3.65896,1.30575 -80.010413,1.30575 -83.669377,0 z M 46.294463,83.060862 c 2.816322,-2.6238 2.026765,-4.154787 -6.801355,-13.188154 -7.261052,-7.429862 -9.017945,-8.541888 -11.553815,-7.312987 -2.409644,1.167731 -3.038967,4.032065 -2.732141,12.435227 0.340425,9.323394 0.46461,9.42522 11.4945,9.42522 7.264069,0 8.289777,-0.14534 9.592811,-1.359306 z m 36.210608,0.09128 c 1.364047,-1.104534 1.597654,-1.9661 1.81182,-6.682134 0.135227,-2.97776 0.05793,-6.382146 -0.17178,-7.565306 -0.326273,-1.680574 -4.82692,-6.636052 -20.572186,-22.6512 l -20.154541,-20.5 h -7.784821 c -10.490279,0 -10.870125,0.411666 -10.447161,11.322324 l 0.233768,6.030196 20.68872,20.657073 20.688721,20.657073 h 7.07076 c 5.95606,0 7.317627,-0.1999 8.6367,-1.268026 z M 82.153705,47.243293 c 1.699746,-1.134955 2.266466,-3.736055 2.266466,-10.402564 0,-7.380608 -0.556633,-9.979861 -2.27872,-10.640687 -0.576133,-0.221084 -4.80618,-0.4521 -9.400107,-0.513368 -7.187774,-0.09586 -8.536334,0.05489 -9.670212,1.081041 -2.717554,2.459352 -1.832463,4.117126 6.839032,12.809493 8.088141,8.107603 9.891374,9.236668 12.243541,7.666085 z"
       id="path3848"
       inkscape:connector-curvature="0" />
    <path
       style="fill:#f35169;stroke-width:0.66666669"
       d="m 17.420169,106.46019 c -6.439658,-0.78785 -10.1155593,-3.1053 -12.7529407,-8.040022 -1.1791715,-2.206313 -1.2470594,-4.54716 -1.2470594,-43 V 14.753502 L 4.9629423,11.621327 C 6.654804,8.1864709 11.125,4.7135676 14.682667,4.0700568 15.821627,3.8640419 34.627289,3.783538 56.473029,3.8911595 l 39.719523,0.1956754 3.233013,2 c 2.300475,1.423112 3.727445,2.96148 4.947145,5.3333331 l 1.71413,3.333334 0.20915,39 c 0.14926,27.832893 -0.009,39.76356 -0.55298,41.666666 -1.34448,4.704202 -3.75215,7.628102 -7.871425,9.559122 l -3.784747,1.77421 -36.333334,0.098 C 37.77017,106.9054 19.620169,106.72931 17.420169,106.46016 Z M 45.343742,84.333688 c 0.909138,-0.414233 2.004863,-1.602673 2.434946,-2.640986 1.085758,-2.621254 -0.299193,-4.664567 -8.883109,-13.105867 -5.995641,-5.896026 -7.252035,-6.833333 -9.159603,-6.833333 -4.206406,0 -4.64914,1.079264 -4.64914,11.333333 0,11.9686 -0.102308,11.86202 11.468632,11.947367 4.003441,0.02953 7.860829,-0.27794 8.788274,-0.700514 z m 37.674896,-0.85018 c 1.27426,-1.15466 1.401533,-1.988773 1.401533,-9.18526 v -7.915276 l -20.5,-20.660738 -20.500001,-20.660737 -7.759477,0.01267 c -10.87059,0.01775 -10.91992,0.06462 -10.867713,10.324834 l 0.03947,7.758345 19.627191,19.699118 c 10.794958,10.834514 20.527193,20.282061 21.627193,20.994547 1.709107,1.107014 2.983967,1.266854 8.765134,1.09896 5.53736,-0.160813 7.019487,-0.426953 8.166667,-1.46646 z m 0.031,-36.359488 c 1.759447,-1.759445 2.207293,-4.70167 1.934667,-12.71017 -0.315314,-9.26262 -0.398814,-9.327015 -12.095021,-9.327015 -8.031911,0 -8.837697,0.113848 -10.259479,1.449543 -3.072679,2.886632 -2.297292,4.390658 6.957033,13.494644 9.086287,8.938674 10.74384,9.811972 13.462813,7.092998 z"
       id="path3846"
       inkscape:connector-curvature="0" />
    <path
       style="fill:#fa465c;stroke-width:0.66666669"
       d="m 14.300539,105.49017 c -3.998747,-1.07671 -7.3568355,-3.65184 -8.9532187,-6.865702 -1.1936459,-2.403073 -1.2604847,-4.641006 -1.2604847,-42.2043 0,-29.923052 0.2056234,-40.342636 0.8371017,-42.418566 1.0588311,-3.480817 5.7419887,-7.9038545 9.4162417,-8.8932278 1.85376,-0.499166 15.064104,-0.670064 41.893758,-0.5419664 l 39.186235,0.1870938 3.234653,1.9012805 c 2.574905,1.5134888 3.594725,2.6692821 5.000005,5.6666669 l 1.76534,3.765386 v 40 40 l -1.51316,2.832587 c -1.77274,3.318488 -5.280458,5.827228 -9.486838,6.785038 -4.617254,1.05137 -76.129533,0.8601 -80.119633,-0.21429 z M 47.086837,83.753502 c 0.853615,-0.853614 1.333333,-2.22222 1.333333,-3.80392 0,-2.27126 -0.661272,-3.13186 -8.196079,-10.666667 -7.261391,-7.261393 -8.453919,-8.19608 -10.457032,-8.19608 -1.403841,0 -2.845884,0.549513 -3.803922,1.449543 -1.461603,1.373105 -1.542967,1.913262 -1.542967,10.24343 0,7.887067 0.14248,8.97502 1.38172,10.550454 1.374529,1.747433 1.430041,1.756573 10.666667,1.756573 8.396058,0 9.412593,-0.127647 10.61828,-1.333333 z m 36.457034,-0.116207 c 1.446454,-1.358873 1.542967,-1.949527 1.542967,-9.442793 V 66.201255 L 65.253504,46.168437 C 54.34517,35.150388 44.97017,25.759184 44.42017,25.299096 43.199584,24.278048 28.282394,24.090203 26.446464,25.072762 c -1.779934,0.952593 -2.695113,4.239083 -2.677056,9.613555 0.0273,8.125043 0.607363,9.469999 6.447328,14.948967 2.861889,2.68498 12.123991,11.75998 20.582451,20.166664 l 15.379016,15.284887 h 7.911348 c 7.205234,0 8.049067,-0.12938 9.45432,-1.44954 z m 0.006,-36.157879 c 1.83116,-1.573605 1.875214,-1.778153 2.094314,-9.723976 0.23446,-8.502714 -0.37258,-11.499462 -2.567314,-12.674049 -0.638353,-0.341635 -5.297013,-0.67746 -10.352587,-0.746277 l -9.191953,-0.125122 -1.555977,1.80893 c -3.151286,3.663589 -2.458033,5.109254 6.972324,14.539611 9.46464,9.464639 10.86738,10.129529 14.601193,6.920883 z"
       id="path3844"
       inkscape:connector-curvature="0" />
    <path
       style="fill:#fa3557;stroke-width:0.66666669"
       d="m 18.038921,105.76677 c -5.518183,-0.612 -7.991737,-1.74348 -10.7975287,-4.9391 C 3.9264582,97.052175 3.5083901,93.396862 3.9818901,72.328708 4.2096404,62.195075 4.6939984,53.120075 5.0582413,52.162044 5.6525701,50.59884 6.068605,50.420168 9.1141631,50.420168 c 1.8665129,0 3.9739389,-0.310555 4.6831669,-0.690122 0.903333,-0.48345 1.706917,-0.466731 2.683325,0.05583 1.037424,0.555213 1.881676,0.543872 3.301778,-0.04435 1.527871,-0.632865 2.722438,-0.583604 5.996465,0.24728 4.80705,1.219934 8.458768,4.274919 27.140925,22.705783 6.32481,6.239734 12.17481,11.71998 13,12.17832 0.929335,0.516194 4.213741,0.842347 8.629841,0.856974 6.591107,0.02187 7.270741,-0.09777 9.000001,-1.58396 1.806613,-1.552674 1.878146,-1.857474 2.094113,-8.923 0.263847,-8.631875 -0.05854,-9.49343 -5.53906,-14.802748 -2.081693,-2.016666 -4.69706,-4.971212 -5.81192,-6.565656 -1.824894,-2.609902 -1.924687,-3.001334 -1.000727,-3.925294 0.86654,-0.86654 1.506553,-0.905374 4.1114,-0.249466 1.6968,0.42726 3.37984,0.594671 3.740094,0.372026 1.289606,-0.797022 15.958853,-0.749451 16.625593,0.05391 0.351694,0.423769 0.442047,0.967885 0.200787,1.209149 -0.241267,0.241263 0.403267,0.43866 1.432287,0.43866 1.029018,0 2.258828,-0.525 2.732898,-1.166666 1.83754,-2.487146 2.43713,0.09738 3.00418,12.949358 0.87722,19.881682 0.76038,28.149742 -0.45567,32.244608 -1.28336,4.321526 -4.777495,8.113026 -8.611835,9.344746 -3.075613,0.98798 -69.951187,1.53752 -78.032884,0.64122 z M 46.010409,85.000355 c 2.061355,-0.939213 3.372435,-3.96564 2.772801,-6.40058 -0.2743,-1.113847 -3.68791,-5.08602 -8.604933,-10.01294 -7.336997,-7.351763 -8.384246,-8.166667 -10.495145,-8.166667 -2.64085,0 -5.022738,1.810751 -5.645429,4.291749 -0.219235,0.873499 -0.297866,5.241858 -0.174737,9.707465 0.219169,7.94878 0.26315,8.15304 2.09438,9.7267 1.759184,1.511753 2.362391,1.60742 10.135298,1.60742 4.722632,0 8.973228,-0.322787 9.917765,-0.753147 z"
       id="path3842"
       inkscape:connector-curvature="0" />
  </g>
</svg>
