<?xml version="1.0" encoding="UTF-8"?>
<svg xmlns="http://www.w3.org/2000/svg" xmlns:xlink="http://www.w3.org/1999/xlink" width="16pt" height="16pt" viewBox="0 0 16 16" version="1.1">
<g id="surface1">
<path style=" stroke:none;fill-rule:nonzero;fill:rgb(97.647059%,78.823529%,82.352941%);fill-opacity:1;" d="M 1.863281 15.941406 C 1.398438 15.824219 0.988281 15.582031 0.632812 15.214844 C -0.0195312 14.535156 0 14.765625 0 7.996094 L 0 1.859375 L 0.261719 1.335938 C 0.554688 0.75 0.964844 0.394531 1.605469 0.171875 C 2.253906 -0.0585938 13.746094 -0.0585938 14.394531 0.171875 C 15.035156 0.394531 15.445312 0.75 15.738281 1.335938 L 16 1.859375 L 16 7.996094 C 16 14.765625 16.019531 14.535156 15.367188 15.214844 C 15.1875 15.398438 14.863281 15.644531 14.640625 15.765625 C 14.242188 15.980469 14.183594 15.980469 8.203125 16 C 4.878906 16.007812 2.027344 15.980469 1.863281 15.941406 Z M 6.585938 12.09375 C 6.714844 12 6.753906 11.886719 6.710938 11.71875 C 6.644531 11.457031 4.433594 9.226562 4.242188 9.226562 C 4.179688 9.226562 4.035156 9.316406 3.925781 9.425781 C 3.75 9.601562 3.722656 9.761719 3.722656 10.703125 C 3.722656 12.238281 3.714844 12.226562 5.21875 12.226562 C 6.050781 12.226562 6.457031 12.1875 6.585938 12.09375 Z M 12.121094 12.007812 C 12.234375 11.84375 12.277344 11.53125 12.277344 10.832031 L 12.277344 9.878906 L 9.230469 6.851562 L 6.183594 3.820312 L 3.917969 3.820312 L 3.8125 4.097656 C 3.753906 4.25 3.722656 4.765625 3.742188 5.246094 L 3.773438 6.121094 L 6.84375 9.175781 L 9.910156 12.226562 L 10.9375 12.226562 C 11.882812 12.226562 11.976562 12.210938 12.121094 12.007812 Z M 12.171875 6.53125 C 12.324219 6.25 12.308594 4.199219 12.152344 3.992188 C 12.046875 3.855469 11.808594 3.824219 10.796875 3.808594 C 8.835938 3.78125 8.796875 3.96875 10.429688 5.574219 C 11.640625 6.761719 11.953125 6.933594 12.171875 6.53125 Z M 12.171875 6.53125 "/>
<path style=" stroke:none;fill-rule:nonzero;fill:rgb(96.862745%,73.333333%,77.254902%);fill-opacity:1;" d="M 1.8125 15.839844 C 1.121094 15.628906 0.589844 15.1875 0.238281 14.53125 C 0.0625 14.199219 0.0507812 13.839844 0.0507812 8.023438 C 0.0507812 1.917969 0.0507812 1.867188 0.265625 1.46875 C 0.558594 0.921875 0.972656 0.527344 1.480469 0.300781 C 1.882812 0.121094 2.238281 0.113281 7.996094 0.117188 C 11.960938 0.121094 14.179688 0.15625 14.363281 0.226562 C 14.949219 0.445312 15.394531 0.84375 15.671875 1.40625 L 15.949219 1.96875 L 15.980469 7.8125 C 16.011719 14.5625 16.023438 14.449219 15.203125 15.238281 C 14.875 15.558594 14.582031 15.734375 14.261719 15.816406 C 13.730469 15.949219 2.242188 15.96875 1.8125 15.839844 Z M 6.640625 12.128906 C 6.753906 12.019531 6.84375 11.855469 6.84375 11.761719 C 6.84375 11.671875 6.3125 11.0625 5.664062 10.410156 C 4.761719 9.5 4.429688 9.226562 4.226562 9.226562 C 3.769531 9.226562 3.722656 9.371094 3.722656 10.742188 C 3.722656 12.359375 3.695312 12.328125 5.304688 12.328125 C 6.304688 12.328125 6.464844 12.304688 6.640625 12.128906 Z M 11.945312 12.265625 C 12.273438 12.179688 12.410156 11.648438 12.355469 10.65625 L 12.3125 9.808594 L 9.246094 6.765625 L 6.183594 3.722656 L 5.074219 3.722656 C 4.34375 3.722656 3.921875 3.761719 3.84375 3.839844 C 3.765625 3.921875 3.722656 4.339844 3.722656 5.070312 L 3.722656 6.179688 L 9.917969 12.328125 L 10.820312 12.328125 C 11.316406 12.328125 11.824219 12.300781 11.945312 12.265625 Z M 12.253906 6.523438 C 12.433594 6.179688 12.382812 4.117188 12.1875 3.886719 C 12.074219 3.75 11.835938 3.722656 10.769531 3.722656 C 9.625 3.722656 9.472656 3.742188 9.3125 3.917969 C 9.199219 4.042969 9.15625 4.199219 9.191406 4.34375 C 9.222656 4.472656 9.769531 5.085938 10.402344 5.707031 C 11.394531 6.679688 11.597656 6.835938 11.839844 6.804688 C 12.015625 6.785156 12.167969 6.683594 12.253906 6.523438 Z M 12.253906 6.523438 "/>
<path style=" stroke:none;fill-rule:nonzero;fill:rgb(95.686275%,60.392157%,65.882353%);fill-opacity:1;" d="M 1.992188 15.839844 C 1.296875 15.699219 0.6875 15.234375 0.355469 14.582031 L 0.0507812 13.992188 L 0.0820312 8.082031 C 0.0976562 4.832031 0.15625 2.007812 0.207031 1.808594 C 0.355469 1.25 0.835938 0.671875 1.375 0.40625 L 1.863281 0.167969 L 7.699219 0.136719 C 11.746094 0.113281 13.695312 0.140625 14.054688 0.21875 C 14.71875 0.359375 15.328125 0.796875 15.621094 1.34375 L 15.847656 1.769531 L 15.847656 14.296875 L 15.546875 14.777344 C 15.335938 15.113281 15.078125 15.355469 14.691406 15.570312 L 14.136719 15.882812 L 8.25 15.898438 C 5.015625 15.90625 2.195312 15.878906 1.992188 15.839844 Z M 6.683594 12.171875 C 7.046875 11.8125 6.894531 11.539062 5.65625 10.304688 C 4.40625 9.0625 4.199219 8.953125 3.824219 9.324219 C 3.644531 9.503906 3.621094 9.660156 3.621094 10.703125 C 3.621094 12.367188 3.585938 12.328125 5.230469 12.328125 C 6.273438 12.328125 6.558594 12.296875 6.683594 12.171875 Z M 12.21875 12.105469 C 12.339844 11.941406 12.378906 11.625 12.378906 10.847656 L 12.378906 9.808594 L 9.398438 6.824219 C 7.761719 5.183594 6.292969 3.785156 6.136719 3.71875 C 5.957031 3.648438 5.476562 3.613281 4.878906 3.636719 C 3.632812 3.679688 3.621094 3.695312 3.621094 5.113281 L 3.621094 6.171875 L 9.816406 12.328125 L 10.941406 12.328125 C 11.988281 12.328125 12.074219 12.3125 12.21875 12.105469 Z M 12.175781 6.722656 C 12.355469 6.546875 12.378906 6.390625 12.378906 5.292969 C 12.378906 3.628906 12.421875 3.679688 10.871094 3.636719 C 9.476562 3.601562 9.15625 3.707031 9.15625 4.203125 C 9.15625 4.425781 9.402344 4.722656 10.398438 5.703125 C 11.082031 6.375 11.714844 6.925781 11.808594 6.925781 C 11.898438 6.925781 12.066406 6.835938 12.175781 6.722656 Z M 12.175781 6.722656 "/>
<path style=" stroke:none;fill-rule:nonzero;fill:rgb(94.509804%,46.27451%,53.72549%);fill-opacity:1;" d="M 1.683594 15.6875 C 1.105469 15.484375 0.648438 15.085938 0.386719 14.558594 L 0.152344 14.078125 L 0.121094 8.476562 C 0.105469 5.046875 0.132812 2.621094 0.195312 2.222656 C 0.324219 1.382812 0.683594 0.867188 1.398438 0.5 L 1.933594 0.21875 L 14.050781 0.21875 L 14.597656 0.492188 C 15.324219 0.859375 15.660156 1.355469 15.800781 2.273438 C 15.871094 2.722656 15.898438 4.960938 15.878906 8.527344 L 15.847656 14.078125 L 15.613281 14.558594 C 15.351562 15.085938 14.894531 15.484375 14.316406 15.6875 C 13.761719 15.882812 2.238281 15.882812 1.683594 15.6875 Z M 6.722656 12.222656 C 7.148438 11.832031 7.027344 11.601562 5.695312 10.246094 C 4.601562 9.128906 4.335938 8.960938 3.953125 9.148438 C 3.589844 9.320312 3.492188 9.753906 3.539062 11.015625 C 3.589844 12.414062 3.609375 12.429688 5.273438 12.429688 C 6.371094 12.429688 6.527344 12.40625 6.722656 12.222656 Z M 12.1875 12.238281 C 12.394531 12.074219 12.429688 11.941406 12.460938 11.234375 C 12.484375 10.789062 12.472656 10.277344 12.4375 10.097656 C 12.386719 9.847656 11.707031 9.101562 9.332031 6.699219 L 6.289062 3.621094 L 5.113281 3.621094 C 3.53125 3.621094 3.472656 3.683594 3.535156 5.320312 L 3.574219 6.226562 L 9.816406 12.429688 L 10.886719 12.429688 C 11.785156 12.429688 11.988281 12.398438 12.1875 12.238281 Z M 12.136719 6.847656 C 12.390625 6.675781 12.476562 6.285156 12.476562 5.285156 C 12.476562 4.179688 12.394531 3.789062 12.132812 3.6875 C 12.046875 3.65625 11.410156 3.621094 10.714844 3.613281 C 9.628906 3.597656 9.425781 3.621094 9.253906 3.773438 C 8.84375 4.144531 8.980469 4.390625 10.289062 5.695312 C 11.507812 6.914062 11.78125 7.082031 12.136719 6.847656 Z M 12.136719 6.847656 "/>
<path style=" stroke:none;fill-rule:nonzero;fill:rgb(95.294118%,31.764706%,41.176471%);fill-opacity:1;" d="M 2.363281 15.738281 C 1.394531 15.617188 0.839844 15.269531 0.441406 14.53125 C 0.261719 14.199219 0.25 13.847656 0.25 8.074219 L 0.25 1.96875 L 0.484375 1.5 C 0.738281 0.984375 1.414062 0.464844 1.953125 0.367188 C 2.125 0.335938 4.960938 0.324219 8.257812 0.339844 L 14.253906 0.367188 L 14.742188 0.667969 C 15.089844 0.882812 15.304688 1.113281 15.488281 1.46875 L 15.75 1.96875 L 15.78125 7.824219 C 15.800781 12.003906 15.777344 13.792969 15.695312 14.078125 C 15.492188 14.785156 15.128906 15.226562 14.507812 15.515625 L 13.9375 15.78125 L 8.453125 15.796875 C 5.4375 15.804688 2.695312 15.777344 2.363281 15.738281 Z M 6.578125 12.414062 C 6.71875 12.351562 6.882812 12.175781 6.945312 12.019531 C 7.109375 11.625 6.902344 11.320312 5.605469 10.050781 C 4.703125 9.167969 4.511719 9.027344 4.222656 9.027344 C 3.589844 9.027344 3.523438 9.1875 3.523438 10.726562 C 3.523438 12.523438 3.507812 12.507812 5.253906 12.519531 C 5.859375 12.523438 6.441406 12.480469 6.578125 12.414062 Z M 12.265625 12.289062 C 12.457031 12.113281 12.476562 11.988281 12.476562 10.910156 L 12.476562 9.722656 L 6.289062 3.519531 L 5.117188 3.519531 C 3.476562 3.523438 3.46875 3.527344 3.476562 5.070312 L 3.484375 6.234375 L 6.445312 9.191406 C 8.074219 10.816406 9.542969 12.234375 9.710938 12.34375 C 9.96875 12.507812 10.160156 12.535156 11.035156 12.507812 C 11.871094 12.484375 12.09375 12.445312 12.265625 12.289062 Z M 12.269531 6.828125 C 12.535156 6.566406 12.605469 6.125 12.5625 4.921875 C 12.515625 3.53125 12.503906 3.519531 10.738281 3.519531 C 9.523438 3.519531 9.402344 3.539062 9.1875 3.738281 C 8.726562 4.171875 8.84375 4.398438 10.238281 5.765625 C 11.609375 7.105469 11.859375 7.238281 12.269531 6.828125 Z M 12.269531 6.828125 "/>
<path style=" stroke:none;fill-rule:nonzero;fill:rgb(98.039216%,27.45098%,36.078431%);fill-opacity:1;" d="M 1.894531 15.589844 C 1.289062 15.429688 0.785156 15.042969 0.542969 14.5625 C 0.363281 14.199219 0.351562 13.863281 0.351562 8.226562 C 0.351562 3.734375 0.382812 2.167969 0.480469 1.855469 C 0.636719 1.335938 1.34375 0.671875 1.898438 0.523438 C 2.179688 0.449219 4.171875 0.421875 8.222656 0.441406 L 14.136719 0.46875 L 14.625 0.753906 C 15.015625 0.980469 15.167969 1.15625 15.382812 1.605469 L 15.648438 2.171875 L 15.648438 14.179688 L 15.417969 14.605469 C 15.152344 15.101562 14.621094 15.480469 13.988281 15.625 C 13.289062 15.78125 2.496094 15.753906 1.894531 15.589844 Z M 6.84375 12.328125 C 6.972656 12.199219 7.042969 11.996094 7.042969 11.757812 C 7.042969 11.417969 6.945312 11.289062 5.808594 10.15625 C 4.710938 9.066406 4.53125 8.925781 4.226562 8.925781 C 4.015625 8.925781 3.800781 9.007812 3.65625 9.144531 C 3.433594 9.347656 3.421875 9.429688 3.421875 10.679688 C 3.421875 11.863281 3.441406 12.027344 3.628906 12.265625 C 3.835938 12.527344 3.847656 12.527344 5.238281 12.527344 C 6.507812 12.527344 6.660156 12.507812 6.84375 12.328125 Z M 12.34375 12.3125 C 12.5625 12.105469 12.578125 12.019531 12.578125 10.894531 L 12.578125 9.695312 L 9.585938 6.6875 C 7.9375 5.03125 6.523438 3.621094 6.441406 3.554688 C 6.257812 3.398438 4.003906 3.371094 3.726562 3.519531 C 3.457031 3.664062 3.320312 4.15625 3.324219 4.960938 C 3.328125 6.183594 3.414062 6.382812 4.296875 7.207031 C 4.726562 7.609375 6.125 8.972656 7.402344 10.234375 L 9.722656 12.527344 L 10.917969 12.527344 C 12.007812 12.527344 12.132812 12.507812 12.34375 12.3125 Z M 12.347656 6.882812 C 12.621094 6.648438 12.628906 6.617188 12.664062 5.421875 C 12.699219 4.148438 12.605469 3.695312 12.273438 3.519531 C 12.179688 3.46875 11.476562 3.417969 10.710938 3.410156 L 9.324219 3.390625 L 9.089844 3.660156 C 8.613281 4.210938 8.71875 4.429688 10.144531 5.84375 C 11.570312 7.265625 11.78125 7.363281 12.347656 6.882812 Z M 12.347656 6.882812 "/>
<path style=" stroke:none;fill-rule:nonzero;fill:rgb(98.039216%,20.784314%,34.117647%);fill-opacity:1;" d="M 2.457031 15.632812 C 1.625 15.542969 1.25 15.371094 0.828125 14.890625 C 0.328125 14.324219 0.265625 13.777344 0.335938 10.613281 C 0.371094 9.09375 0.445312 7.730469 0.5 7.585938 C 0.589844 7.351562 0.652344 7.324219 1.109375 7.324219 C 1.394531 7.324219 1.710938 7.277344 1.816406 7.222656 C 1.953125 7.148438 2.074219 7.152344 2.222656 7.230469 C 2.378906 7.3125 2.507812 7.3125 2.722656 7.222656 C 2.953125 7.128906 3.132812 7.136719 3.625 7.257812 C 4.351562 7.441406 4.902344 7.902344 7.722656 10.667969 C 8.679688 11.605469 9.5625 12.429688 9.683594 12.496094 C 9.824219 12.574219 10.320312 12.625 10.988281 12.625 C 11.984375 12.628906 12.085938 12.609375 12.347656 12.386719 C 12.621094 12.15625 12.628906 12.109375 12.664062 11.046875 C 12.703125 9.753906 12.652344 9.621094 11.828125 8.824219 C 11.511719 8.523438 11.117188 8.078125 10.949219 7.839844 C 10.675781 7.449219 10.660156 7.390625 10.796875 7.25 C 10.929688 7.121094 11.027344 7.113281 11.417969 7.214844 C 11.675781 7.277344 11.929688 7.300781 11.984375 7.269531 C 12.179688 7.148438 14.390625 7.15625 14.492188 7.277344 C 14.546875 7.339844 14.558594 7.421875 14.523438 7.457031 C 14.488281 7.496094 14.585938 7.523438 14.738281 7.523438 C 14.894531 7.523438 15.082031 7.445312 15.152344 7.347656 C 15.429688 6.976562 15.519531 7.363281 15.605469 9.292969 C 15.738281 12.277344 15.71875 13.519531 15.535156 14.132812 C 15.34375 14.78125 14.816406 15.351562 14.238281 15.535156 C 13.773438 15.683594 3.679688 15.769531 2.457031 15.632812 Z M 6.679688 12.515625 C 6.992188 12.375 7.1875 11.921875 7.097656 11.554688 C 7.058594 11.386719 6.542969 10.792969 5.800781 10.050781 C 4.691406 8.949219 4.535156 8.824219 4.214844 8.824219 C 3.816406 8.824219 3.457031 9.097656 3.363281 9.46875 C 3.332031 9.601562 3.320312 10.257812 3.335938 10.925781 C 3.371094 12.121094 3.378906 12.152344 3.652344 12.386719 C 3.917969 12.613281 4.011719 12.628906 5.183594 12.628906 C 5.894531 12.628906 6.539062 12.582031 6.679688 12.515625 Z M 6.679688 12.515625 "/>
</g>
</svg>
