<?xml version="1.0" encoding="UTF-8"?>
<svg xmlns="http://www.w3.org/2000/svg" xmlns:xlink="http://www.w3.org/1999/xlink" width="48pt" height="48pt" viewBox="0 0 48 48" version="1.1">
<g id="surface1">
<path style=" stroke:none;fill-rule:nonzero;fill:rgb(97.647059%,78.823529%,82.352941%);fill-opacity:1;" d="M 5.585938 47.820312 C 4.199219 47.476562 2.964844 46.746094 1.902344 45.644531 C -0.0585938 43.609375 0 44.292969 0 23.992188 L 0 5.578125 L 0.785156 4.007812 C 1.667969 2.25 2.890625 1.1875 4.8125 0.511719 C 6.757812 -0.171875 41.242188 -0.171875 43.1875 0.511719 C 45.109375 1.1875 46.332031 2.25 47.214844 4.007812 L 48 5.578125 L 48 23.992188 C 48 44.292969 48.058594 43.609375 46.097656 45.644531 C 45.566406 46.195312 44.589844 46.9375 43.925781 47.296875 C 42.726562 47.9375 42.550781 47.945312 24.605469 47.996094 C 14.640625 48.023438 6.082031 47.941406 5.585938 47.820312 Z M 19.761719 36.28125 C 20.148438 36 20.261719 35.660156 20.132812 35.152344 C 19.933594 34.367188 13.304688 27.679688 12.726562 27.679688 C 12.535156 27.679688 12.105469 27.949219 11.773438 28.277344 C 11.246094 28.804688 11.167969 29.28125 11.167969 32.113281 C 11.167969 36.710938 11.144531 36.683594 15.65625 36.683594 C 18.152344 36.683594 19.371094 36.566406 19.761719 36.28125 Z M 36.359375 36.019531 C 36.707031 35.527344 36.832031 34.59375 36.832031 32.496094 L 36.832031 29.640625 L 27.691406 20.554688 L 18.554688 11.464844 L 11.757812 11.464844 L 11.441406 12.289062 C 11.265625 12.746094 11.167969 14.296875 11.222656 15.742188 L 11.320312 18.367188 L 20.527344 27.527344 L 29.730469 36.683594 L 32.8125 36.683594 C 35.652344 36.683594 35.925781 36.632812 36.359375 36.019531 Z M 36.515625 19.589844 C 36.972656 18.746094 36.921875 12.601562 36.453125 11.980469 C 36.140625 11.570312 35.429688 11.472656 32.386719 11.429688 C 26.503906 11.347656 26.390625 11.902344 31.289062 16.71875 C 34.921875 20.289062 35.863281 20.804688 36.515625 19.589844 Z M 36.515625 19.589844 "/>
<path style=" stroke:none;fill-rule:nonzero;fill:rgb(96.862745%,73.333333%,77.254902%);fill-opacity:1;" d="M 5.433594 47.515625 C 3.363281 46.886719 1.769531 45.566406 0.714844 43.589844 C 0.183594 42.597656 0.152344 41.515625 0.152344 24.074219 C 0.152344 5.757812 0.15625 5.601562 0.800781 4.40625 C 1.679688 2.769531 2.917969 1.582031 4.445312 0.902344 C 5.652344 0.363281 6.710938 0.335938 23.984375 0.347656 C 35.882812 0.359375 42.539062 0.472656 43.085938 0.675781 C 44.851562 1.335938 46.183594 2.535156 47.015625 4.222656 L 47.847656 5.910156 L 47.9375 23.433594 C 48.035156 43.691406 48.074219 43.347656 45.609375 45.71875 C 44.621094 46.671875 43.746094 47.203125 42.785156 47.445312 C 41.195312 47.84375 6.730469 47.90625 5.433594 47.515625 Z M 19.925781 36.386719 C 20.257812 36.054688 20.527344 35.5625 20.527344 35.289062 C 20.527344 35.011719 18.9375 33.191406 16.996094 31.234375 C 14.285156 28.503906 13.285156 27.679688 12.679688 27.679688 C 11.3125 27.679688 11.167969 28.113281 11.167969 32.226562 C 11.167969 37.074219 11.082031 36.984375 15.917969 36.984375 C 18.917969 36.984375 19.390625 36.914062 19.925781 36.386719 Z M 35.835938 36.800781 C 36.820312 36.539062 37.226562 34.941406 37.070312 31.96875 L 36.933594 29.425781 L 27.742188 20.296875 L 18.546875 11.164062 L 15.21875 11.164062 C 13.035156 11.164062 11.769531 11.289062 11.53125 11.523438 C 11.292969 11.761719 11.167969 13.023438 11.167969 15.210938 L 11.167969 18.535156 L 20.464844 27.757812 L 29.757812 36.984375 L 32.464844 36.980469 C 33.953125 36.980469 35.46875 36.898438 35.835938 36.800781 Z M 36.757812 19.570312 C 37.296875 18.539062 37.148438 12.355469 36.566406 11.660156 C 36.222656 11.246094 35.511719 11.164062 32.3125 11.164062 C 28.878906 11.164062 28.414062 11.226562 27.933594 11.753906 C 27.59375 12.128906 27.464844 12.59375 27.574219 13.035156 C 27.671875 13.414062 29.304688 15.253906 31.210938 17.121094 C 34.179688 20.035156 34.789062 20.503906 35.515625 20.417969 C 36.050781 20.359375 36.507812 20.046875 36.757812 19.570312 Z M 36.757812 19.570312 "/>
<path style=" stroke:none;fill-rule:nonzero;fill:rgb(95.686275%,60.392157%,65.882353%);fill-opacity:1;" d="M 5.972656 47.515625 C 3.890625 47.101562 2.0625 45.699219 1.0625 43.75 L 0.152344 41.976562 L 0.246094 24.242188 C 0.296875 14.492188 0.464844 6.023438 0.621094 5.429688 C 1.0625 3.746094 2.503906 2.015625 4.125 1.222656 L 5.585938 0.507812 L 23.09375 0.410156 C 35.242188 0.34375 41.082031 0.417969 42.167969 0.652344 C 44.15625 1.082031 45.980469 2.394531 46.859375 4.03125 L 47.546875 5.308594 L 47.546875 42.886719 L 46.640625 44.332031 C 46.011719 45.339844 45.230469 46.0625 44.074219 46.710938 L 42.414062 47.644531 L 24.753906 47.691406 C 15.042969 47.71875 6.589844 47.636719 5.972656 47.515625 Z M 20.054688 36.515625 C 21.136719 35.4375 20.6875 34.621094 16.96875 30.917969 C 13.21875 27.191406 12.597656 26.859375 11.472656 27.976562 C 10.9375 28.511719 10.867188 28.980469 10.867188 32.113281 C 10.867188 37.097656 10.753906 36.984375 15.695312 36.984375 C 18.824219 36.984375 19.671875 36.894531 20.054688 36.515625 Z M 36.660156 36.320312 C 37.015625 35.820312 37.132812 34.871094 37.132812 32.539062 L 37.132812 29.425781 L 28.199219 20.472656 C 23.289062 15.546875 18.878906 11.355469 18.40625 11.160156 C 17.875 10.941406 16.425781 10.84375 14.632812 10.910156 C 10.902344 11.042969 10.867188 11.082031 10.867188 15.34375 L 10.867188 18.511719 L 20.15625 27.746094 L 29.445312 36.984375 L 32.820312 36.984375 C 35.960938 36.984375 36.222656 36.941406 36.660156 36.320312 Z M 36.527344 20.171875 C 37.066406 19.636719 37.132812 19.171875 37.132812 15.875 C 37.132812 10.890625 37.269531 11.042969 32.613281 10.914062 C 28.433594 10.800781 27.472656 11.117188 27.472656 12.613281 C 27.472656 13.28125 28.207031 14.171875 31.195312 17.109375 C 33.246094 19.125 35.148438 20.773438 35.421875 20.773438 C 35.699219 20.773438 36.195312 20.503906 36.527344 20.171875 Z M 36.527344 20.171875 "/>
<path style=" stroke:none;fill-rule:nonzero;fill:rgb(94.509804%,46.27451%,53.72549%);fill-opacity:1;" d="M 5.054688 47.066406 C 3.316406 46.449219 1.945312 45.253906 1.164062 43.675781 L 0.453125 42.238281 L 0.367188 25.429688 C 0.3125 15.144531 0.394531 7.859375 0.582031 6.671875 C 0.976562 4.152344 2.054688 2.605469 4.191406 1.496094 L 5.804688 0.65625 L 42.15625 0.65625 L 43.792969 1.480469 C 45.976562 2.582031 46.984375 4.070312 47.402344 6.816406 C 47.609375 8.167969 47.691406 14.882812 47.632812 25.582031 L 47.546875 42.238281 L 46.835938 43.675781 C 46.054688 45.253906 44.683594 46.449219 42.945312 47.066406 C 41.285156 47.652344 6.714844 47.652344 5.054688 47.066406 Z M 20.167969 36.671875 C 21.445312 35.492188 21.085938 34.800781 17.089844 30.734375 C 13.800781 27.386719 13.007812 26.886719 11.859375 27.441406 C 10.765625 27.964844 10.480469 29.257812 10.621094 33.042969 C 10.773438 37.238281 10.832031 37.285156 15.824219 37.285156 C 19.113281 37.285156 19.578125 37.21875 20.167969 36.671875 Z M 36.566406 36.714844 C 37.183594 36.21875 37.289062 35.828125 37.386719 33.707031 C 37.449219 32.363281 37.414062 30.832031 37.308594 30.296875 C 37.160156 29.542969 35.125 27.308594 27.992188 20.097656 L 18.867188 10.863281 L 15.34375 10.863281 C 10.589844 10.863281 10.417969 11.050781 10.609375 15.964844 L 10.71875 18.679688 L 20.085938 27.984375 L 29.453125 37.285156 L 32.65625 37.285156 C 35.351562 37.285156 35.96875 37.195312 36.566406 36.714844 Z M 36.40625 20.542969 C 37.175781 20.03125 37.433594 18.859375 37.433594 15.859375 C 37.433594 12.535156 37.183594 11.363281 36.402344 11.066406 C 36.140625 10.964844 34.226562 10.863281 32.144531 10.835938 C 28.890625 10.792969 28.28125 10.859375 27.765625 11.320312 C 26.535156 12.429688 26.9375 13.175781 30.863281 17.089844 C 34.527344 20.742188 35.34375 21.25 36.40625 20.542969 Z M 36.40625 20.542969 "/>
<path style=" stroke:none;fill-rule:nonzero;fill:rgb(95.294118%,31.764706%,41.176471%);fill-opacity:1;" d="M 7.09375 47.210938 C 4.179688 46.855469 2.515625 45.8125 1.320312 43.589844 C 0.785156 42.597656 0.753906 41.542969 0.753906 24.226562 L 0.753906 5.910156 L 1.453125 4.5 C 2.21875 2.953125 4.242188 1.390625 5.855469 1.097656 C 6.371094 1.007812 14.886719 0.96875 24.777344 1.019531 L 42.765625 1.105469 L 44.230469 2.007812 C 45.269531 2.648438 45.917969 3.339844 46.46875 4.410156 L 47.246094 5.910156 L 47.339844 23.476562 C 47.40625 36.007812 47.335938 41.382812 47.089844 42.238281 C 46.480469 44.359375 45.390625 45.675781 43.523438 46.546875 L 41.8125 47.34375 L 25.359375 47.386719 C 16.308594 47.414062 8.089844 47.332031 7.09375 47.210938 Z M 19.738281 37.246094 C 20.152344 37.058594 20.648438 36.523438 20.839844 36.058594 C 21.332031 34.878906 20.707031 33.957031 16.820312 30.15625 C 14.105469 27.5 13.535156 27.078125 12.671875 27.078125 C 10.765625 27.078125 10.566406 27.5625 10.566406 32.183594 C 10.566406 37.570312 10.519531 37.523438 15.757812 37.5625 C 17.574219 37.574219 19.320312 37.4375 19.738281 37.246094 Z M 36.800781 36.863281 C 37.375 36.34375 37.433594 35.96875 37.433594 32.726562 L 37.433594 29.164062 L 28.152344 19.859375 L 18.867188 10.554688 L 15.355469 10.558594 C 10.433594 10.566406 10.410156 10.585938 10.433594 15.207031 L 10.449219 18.703125 L 19.339844 27.574219 C 24.226562 32.453125 28.632812 36.707031 29.132812 37.03125 C 29.90625 37.527344 30.484375 37.601562 33.101562 37.523438 C 35.609375 37.453125 36.28125 37.332031 36.800781 36.863281 Z M 36.8125 20.488281 C 37.609375 19.695312 37.8125 18.371094 37.6875 14.765625 C 37.546875 10.59375 37.507812 10.5625 32.210938 10.5625 C 28.574219 10.5625 28.210938 10.617188 27.566406 11.21875 C 26.175781 12.515625 26.527344 13.195312 30.71875 17.292969 C 34.832031 21.320312 35.582031 21.714844 36.8125 20.488281 Z M 36.8125 20.488281 "/>
<path style=" stroke:none;fill-rule:nonzero;fill:rgb(98.039216%,27.45098%,36.078431%);fill-opacity:1;" d="M 5.683594 46.773438 C 3.871094 46.289062 2.351562 45.128906 1.628906 43.683594 C 1.085938 42.601562 1.058594 41.59375 1.058594 24.675781 C 1.058594 11.199219 1.148438 6.507812 1.4375 5.570312 C 1.914062 4.003906 4.035156 2.011719 5.699219 1.566406 C 6.539062 1.34375 12.519531 1.265625 24.671875 1.324219 L 42.414062 1.40625 L 43.878906 2.261719 C 45.046875 2.945312 45.507812 3.464844 46.144531 4.816406 L 46.941406 6.511719 L 46.941406 42.539062 L 46.257812 43.816406 C 45.457031 45.308594 43.867188 46.441406 41.960938 46.871094 C 39.871094 47.34375 7.488281 47.257812 5.683594 46.773438 Z M 20.527344 36.984375 C 20.914062 36.601562 21.132812 35.984375 21.132812 35.273438 C 21.132812 34.25 20.832031 33.863281 17.421875 30.46875 C 14.132812 27.199219 13.59375 26.777344 12.683594 26.777344 C 12.050781 26.777344 11.398438 27.023438 10.964844 27.429688 C 10.300781 28.046875 10.265625 28.292969 10.265625 32.042969 C 10.265625 35.59375 10.328125 36.085938 10.890625 36.796875 C 11.511719 37.582031 11.539062 37.585938 15.71875 37.585938 C 19.523438 37.585938 19.980469 37.527344 20.527344 36.984375 Z M 37.035156 36.933594 C 37.691406 36.320312 37.734375 36.054688 37.734375 32.679688 L 37.734375 29.082031 L 28.753906 20.058594 C 23.816406 15.097656 19.570312 10.867188 19.320312 10.660156 C 18.769531 10.199219 12.011719 10.117188 11.183594 10.558594 C 10.375 10.988281 9.960938 12.46875 9.96875 14.886719 C 9.980469 18.546875 10.246094 19.152344 12.890625 21.621094 C 14.183594 22.828125 18.378906 26.917969 22.210938 30.703125 L 29.171875 37.585938 L 32.757812 37.585938 C 36.019531 37.585938 36.402344 37.527344 37.035156 36.933594 Z M 37.039062 20.648438 C 37.867188 19.941406 37.890625 19.847656 37.988281 16.269531 C 38.09375 12.441406 37.820312 11.089844 36.824219 10.5625 C 36.535156 10.40625 34.425781 10.257812 32.136719 10.226562 L 27.976562 10.167969 L 27.269531 10.984375 C 25.84375 12.632812 26.15625 13.285156 30.429688 17.53125 C 34.714844 21.792969 35.347656 22.09375 37.039062 20.648438 Z M 37.039062 20.648438 "/>
<path style=" stroke:none;fill-rule:nonzero;fill:rgb(98.039216%,20.784314%,34.117647%);fill-opacity:1;" d="M 7.375 46.898438 C 4.875 46.625 3.753906 46.113281 2.484375 44.675781 C 0.984375 42.976562 0.792969 41.328125 1.007812 31.839844 C 1.113281 27.277344 1.332031 23.191406 1.496094 22.757812 C 1.765625 22.054688 1.953125 21.972656 3.332031 21.972656 C 4.179688 21.972656 5.132812 21.832031 5.453125 21.664062 C 5.863281 21.445312 6.226562 21.453125 6.667969 21.6875 C 7.140625 21.9375 7.519531 21.933594 8.164062 21.667969 C 8.855469 21.382812 9.398438 21.40625 10.878906 21.777344 C 13.054688 22.328125 14.710938 23.703125 23.167969 32.003906 C 26.035156 34.816406 28.683594 37.285156 29.054688 37.488281 C 29.476562 37.722656 30.964844 37.871094 32.964844 37.875 C 35.949219 37.886719 36.257812 37.832031 37.039062 37.164062 C 37.859375 36.464844 37.890625 36.324219 37.988281 33.144531 C 38.105469 29.257812 37.960938 28.867188 35.480469 26.476562 C 34.535156 25.570312 33.351562 24.238281 32.847656 23.519531 C 32.023438 22.34375 31.976562 22.167969 32.394531 21.753906 C 32.789062 21.363281 33.078125 21.34375 34.257812 21.640625 C 35.023438 21.832031 35.785156 21.90625 35.949219 21.808594 C 36.535156 21.449219 43.175781 21.46875 43.480469 21.832031 C 43.636719 22.023438 43.679688 22.269531 43.570312 22.375 C 43.460938 22.484375 43.753906 22.574219 44.21875 22.574219 C 44.683594 22.574219 45.242188 22.335938 45.457031 22.046875 C 46.289062 20.929688 46.558594 22.09375 46.816406 27.878906 C 47.214844 36.835938 47.160156 40.558594 46.609375 42.402344 C 46.027344 44.347656 44.445312 46.054688 42.710938 46.609375 C 41.316406 47.054688 11.035156 47.304688 7.375 46.898438 Z M 20.039062 37.546875 C 20.972656 37.125 21.566406 35.761719 21.296875 34.664062 C 21.171875 34.164062 19.625 32.375 17.398438 30.15625 C 14.078125 26.84375 13.601562 26.476562 12.648438 26.476562 C 11.453125 26.476562 10.371094 27.292969 10.089844 28.410156 C 9.992188 28.804688 9.957031 30.769531 10.011719 32.78125 C 10.109375 36.363281 10.132812 36.453125 10.960938 37.164062 C 11.757812 37.84375 12.03125 37.886719 15.550781 37.886719 C 17.6875 37.886719 19.613281 37.742188 20.039062 37.546875 Z M 20.039062 37.546875 "/>
</g>
</svg>
