<?xml version="1.0" encoding="UTF-8"?>
<svg xmlns="http://www.w3.org/2000/svg" xmlns:xlink="http://www.w3.org/1999/xlink" width="64pt" height="64pt" viewBox="0 0 64 64" version="1.1">
<g id="surface1">
<path style=" stroke:none;fill-rule:nonzero;fill:rgb(97.647059%,78.823529%,82.352941%);fill-opacity:1;" d="M 7.445312 63.757812 C 5.601562 63.300781 3.957031 62.328125 2.535156 60.859375 C -0.078125 58.144531 0 59.058594 0 31.992188 L 0 7.4375 L 1.046875 5.347656 C 2.222656 3 3.855469 1.582031 6.417969 0.683594 C 9.011719 -0.226562 54.988281 -0.226562 57.582031 0.683594 C 60.144531 1.582031 61.777344 3 62.953125 5.347656 L 64 7.4375 L 64 31.992188 C 64 59.058594 64.082031 58.144531 61.464844 60.859375 C 60.753906 61.59375 59.453125 62.585938 58.566406 63.058594 C 56.96875 63.917969 56.734375 63.925781 32.804688 63.992188 C 19.523438 64.027344 8.109375 63.925781 7.445312 63.757812 Z M 26.347656 48.375 C 26.867188 48 27.015625 47.546875 26.84375 46.867188 C 26.578125 45.824219 17.738281 36.902344 16.96875 36.902344 C 16.710938 36.902344 16.140625 37.265625 15.699219 37.703125 C 14.992188 38.40625 14.894531 39.039062 14.894531 42.820312 C 14.894531 48.945312 14.863281 48.914062 20.875 48.914062 C 24.203125 48.914062 25.828125 48.753906 26.347656 48.375 Z M 48.480469 48.023438 C 48.941406 47.371094 49.105469 46.125 49.105469 43.328125 L 49.105469 39.519531 L 24.738281 15.285156 L 15.679688 15.285156 L 15.253906 16.386719 C 15.019531 16.992188 14.886719 19.0625 14.960938 20.988281 L 15.09375 24.488281 L 27.367188 36.703125 L 39.644531 48.914062 L 43.75 48.914062 C 47.535156 48.914062 47.902344 48.84375 48.480469 48.023438 Z M 48.691406 26.121094 C 49.296875 24.992188 49.226562 16.800781 48.605469 15.976562 C 48.1875 15.425781 47.242188 15.296875 43.179688 15.242188 C 35.339844 15.128906 35.183594 15.871094 41.71875 22.289062 C 46.5625 27.050781 47.820312 27.742188 48.691406 26.121094 Z M 48.691406 26.121094 "/>
<path style=" stroke:none;fill-rule:nonzero;fill:rgb(96.862745%,73.333333%,77.254902%);fill-opacity:1;" d="M 7.242188 63.351562 C 4.480469 62.515625 2.363281 60.753906 0.953125 58.121094 C 0.242188 56.796875 0.203125 55.355469 0.203125 32.101562 C 0.203125 7.675781 0.207031 7.46875 1.066406 5.875 C 2.242188 3.691406 3.890625 2.109375 5.929688 1.203125 C 7.539062 0.484375 8.945312 0.445312 31.980469 0.464844 C 47.84375 0.476562 56.71875 0.628906 57.445312 0.902344 C 59.804688 1.78125 61.578125 3.378906 62.6875 5.628906 L 63.796875 7.878906 L 63.914062 31.246094 C 64.046875 58.257812 64.097656 57.796875 60.8125 60.960938 C 59.496094 62.226562 58.332031 62.941406 57.046875 63.261719 C 54.929688 63.792969 8.972656 63.875 7.242188 63.351562 Z M 26.566406 48.511719 C 27.007812 48.074219 27.371094 47.414062 27.371094 47.050781 C 27.371094 46.683594 25.253906 44.253906 22.664062 41.644531 C 19.046875 38.003906 17.710938 36.902344 16.90625 36.902344 C 15.085938 36.902344 14.894531 37.484375 14.894531 42.964844 C 14.894531 49.429688 14.777344 49.3125 21.222656 49.3125 C 25.222656 49.3125 25.855469 49.21875 26.566406 48.511719 Z M 47.78125 49.066406 C 49.09375 48.71875 49.636719 46.589844 49.425781 42.625 L 49.246094 39.234375 L 36.988281 27.0625 L 24.726562 14.886719 L 20.292969 14.886719 C 17.382812 14.886719 15.695312 15.050781 15.375 15.367188 C 15.058594 15.683594 14.894531 17.367188 14.894531 20.28125 L 14.894531 24.710938 L 27.285156 37.011719 L 39.679688 49.3125 L 43.285156 49.308594 C 45.269531 49.304688 47.292969 49.195312 47.78125 49.066406 Z M 49.007812 26.09375 C 49.730469 24.71875 49.53125 16.472656 48.753906 15.546875 C 48.296875 14.996094 47.351562 14.886719 43.082031 14.886719 C 38.507812 14.886719 37.886719 14.96875 37.246094 15.671875 C 36.792969 16.171875 36.617188 16.789062 36.765625 17.378906 C 36.894531 17.886719 39.074219 20.339844 41.613281 22.828125 C 45.570312 26.714844 46.386719 27.335938 47.355469 27.226562 C 48.070312 27.144531 48.675781 26.726562 49.007812 26.09375 Z M 49.007812 26.09375 "/>
<path style=" stroke:none;fill-rule:nonzero;fill:rgb(95.686275%,60.392157%,65.882353%);fill-opacity:1;" d="M 7.960938 63.355469 C 5.183594 62.800781 2.75 60.933594 1.414062 58.332031 L 0.203125 55.96875 L 0.324219 32.324219 C 0.394531 19.320312 0.621094 8.035156 0.828125 7.242188 C 1.417969 4.992188 3.335938 2.6875 5.5 1.628906 L 7.445312 0.675781 L 30.792969 0.546875 C 46.988281 0.460938 54.777344 0.558594 56.222656 0.871094 C 58.875 1.441406 61.308594 3.195312 62.480469 5.375 L 63.394531 7.078125 L 63.394531 57.183594 L 62.1875 59.109375 C 61.347656 60.453125 60.308594 61.417969 58.765625 62.28125 L 56.554688 63.527344 L 33.007812 63.589844 C 20.054688 63.625 8.785156 63.519531 7.960938 63.355469 Z M 26.738281 48.683594 C 28.183594 47.246094 27.582031 46.160156 22.625 41.226562 C 17.621094 36.253906 16.796875 35.8125 15.296875 37.304688 C 14.582031 38.015625 14.492188 38.640625 14.492188 42.820312 C 14.492188 49.464844 14.339844 49.3125 20.925781 49.3125 C 25.097656 49.3125 26.230469 49.191406 26.738281 48.683594 Z M 48.882812 48.425781 C 49.351562 47.757812 49.507812 46.492188 49.507812 43.382812 L 49.507812 39.234375 L 37.601562 27.292969 C 31.050781 20.726562 25.171875 15.140625 24.539062 14.882812 C 23.832031 14.589844 21.902344 14.460938 19.511719 14.546875 C 14.535156 14.726562 14.492188 14.777344 14.492188 20.460938 L 14.492188 24.679688 L 39.257812 49.3125 L 43.757812 49.3125 C 47.949219 49.3125 48.296875 49.253906 48.882812 48.425781 Z M 48.703125 26.894531 C 49.421875 26.183594 49.507812 25.5625 49.507812 21.167969 C 49.507812 14.523438 49.691406 14.722656 43.484375 14.550781 C 37.910156 14.398438 36.628906 14.824219 36.628906 16.816406 C 36.628906 17.710938 37.613281 18.894531 41.59375 22.8125 C 44.328125 25.5 46.863281 27.695312 47.230469 27.695312 C 47.597656 27.695312 48.261719 27.335938 48.703125 26.894531 Z M 48.703125 26.894531 "/>
<path style=" stroke:none;fill-rule:nonzero;fill:rgb(94.509804%,46.27451%,53.72549%);fill-opacity:1;" d="M 6.742188 62.753906 C 4.421875 61.929688 2.59375 60.335938 1.550781 58.230469 L 0.605469 56.320312 L 0.488281 33.902344 C 0.414062 20.195312 0.527344 10.480469 0.777344 8.894531 C 1.300781 5.535156 2.742188 3.472656 5.585938 1.992188 L 7.738281 0.875 L 56.207031 0.875 L 58.390625 1.976562 C 61.300781 3.445312 62.644531 5.429688 63.203125 9.085938 C 63.476562 10.890625 63.589844 19.84375 63.511719 34.109375 L 63.394531 56.320312 L 62.449219 58.230469 C 61.40625 60.335938 59.578125 61.929688 57.257812 62.753906 C 55.050781 63.539062 8.949219 63.539062 6.742188 62.753906 Z M 26.894531 48.898438 C 28.59375 47.324219 28.117188 46.402344 22.785156 40.980469 C 18.402344 36.515625 17.339844 35.851562 15.808594 36.585938 C 14.355469 37.289062 13.976562 39.007812 14.160156 44.054688 C 14.367188 49.652344 14.441406 49.714844 21.101562 49.714844 C 25.488281 49.714844 26.105469 49.628906 26.894531 48.898438 Z M 48.753906 48.953125 C 49.578125 48.289062 49.71875 47.773438 49.847656 44.941406 C 49.929688 43.152344 49.882812 41.109375 49.746094 40.398438 C 49.546875 39.386719 46.832031 36.414062 37.324219 26.796875 L 25.15625 14.484375 L 20.457031 14.484375 C 14.121094 14.484375 13.894531 14.734375 14.148438 21.285156 L 14.289062 24.90625 L 26.78125 37.308594 L 39.273438 49.714844 L 43.539062 49.714844 C 47.136719 49.714844 47.960938 49.59375 48.753906 48.953125 Z M 48.542969 27.390625 C 49.570312 26.707031 49.910156 25.148438 49.910156 21.144531 C 49.910156 16.710938 49.574219 15.152344 48.535156 14.753906 C 48.1875 14.621094 45.632812 14.484375 42.859375 14.445312 C 38.519531 14.386719 37.707031 14.480469 37.023438 15.09375 C 35.382812 16.570312 35.914062 17.566406 41.152344 22.785156 C 46.035156 27.65625 47.125 28.332031 48.542969 27.390625 Z M 48.542969 27.390625 "/>
<path style=" stroke:none;fill-rule:nonzero;fill:rgb(95.294118%,31.764706%,41.176471%);fill-opacity:1;" d="M 9.460938 62.949219 C 5.570312 62.476562 3.351562 61.085938 1.757812 58.121094 C 1.046875 56.796875 1.007812 55.390625 1.007812 32.300781 L 1.007812 7.878906 L 1.9375 6 C 2.960938 3.9375 5.660156 1.851562 7.804688 1.464844 C 8.496094 1.339844 19.847656 1.292969 33.039062 1.359375 L 57.019531 1.476562 L 58.972656 2.675781 C 60.359375 3.53125 61.222656 4.453125 61.957031 5.878906 L 62.992188 7.878906 L 63.121094 31.300781 C 63.210938 48.011719 63.113281 55.175781 62.785156 56.320312 C 61.972656 59.144531 60.519531 60.902344 58.035156 62.058594 L 55.75 63.125 L 33.8125 63.183594 C 21.746094 63.214844 10.789062 63.109375 9.460938 62.949219 Z M 26.320312 49.664062 C 26.867188 49.414062 27.527344 48.699219 27.789062 48.078125 C 28.445312 46.503906 27.609375 45.277344 22.425781 40.207031 C 18.804688 36.667969 18.046875 36.105469 16.894531 36.105469 C 14.355469 36.105469 14.089844 36.75 14.089844 42.910156 C 14.089844 50.097656 14.027344 50.03125 21.011719 50.082031 C 23.429688 50.101562 25.757812 49.917969 26.320312 49.664062 Z M 49.066406 49.152344 C 49.835938 48.457031 49.910156 47.957031 49.910156 43.636719 L 49.910156 38.882812 L 37.535156 26.476562 L 25.15625 14.070312 L 20.472656 14.078125 C 13.910156 14.089844 13.878906 14.117188 13.910156 20.277344 L 13.933594 24.9375 L 25.785156 36.765625 C 32.300781 43.273438 38.179688 48.945312 38.84375 49.371094 C 39.875 50.039062 40.644531 50.132812 44.136719 50.03125 C 47.476562 49.9375 48.371094 49.777344 49.066406 49.152344 Z M 49.085938 27.320312 C 50.148438 26.261719 50.417969 24.496094 50.253906 19.6875 C 50.0625 14.125 50.011719 14.085938 42.949219 14.085938 C 38.101562 14.085938 37.613281 14.152344 36.753906 14.957031 C 34.898438 16.691406 35.367188 17.59375 40.957031 23.058594 C 46.441406 28.425781 47.441406 28.953125 49.085938 27.320312 Z M 49.085938 27.320312 "/>
<path style=" stroke:none;fill-rule:nonzero;fill:rgb(98.039216%,27.45098%,36.078431%);fill-opacity:1;" d="M 7.574219 62.367188 C 5.160156 61.71875 3.132812 60.175781 2.171875 58.242188 C 1.449219 56.800781 1.410156 55.457031 1.410156 32.902344 C 1.410156 14.933594 1.535156 8.675781 1.914062 7.429688 C 2.554688 5.339844 5.382812 2.683594 7.601562 2.089844 C 8.71875 1.789062 16.695312 1.6875 32.894531 1.761719 L 56.554688 1.875 L 58.507812 3.015625 C 60.0625 3.925781 60.675781 4.621094 61.523438 6.421875 L 62.589844 8.679688 L 62.589844 56.71875 L 61.675781 58.421875 C 60.605469 60.414062 58.488281 61.921875 55.949219 62.496094 C 53.160156 63.125 9.984375 63.011719 7.574219 62.367188 Z M 27.371094 49.3125 C 27.886719 48.800781 28.175781 47.980469 28.175781 47.03125 C 28.175781 45.667969 27.777344 45.148438 23.226562 40.625 C 18.84375 36.265625 18.125 35.703125 16.914062 35.703125 C 16.066406 35.703125 15.195312 36.03125 14.617188 36.574219 C 13.734375 37.398438 13.6875 37.722656 13.6875 42.726562 C 13.6875 47.460938 13.773438 48.113281 14.519531 49.058594 C 15.351562 50.109375 15.382812 50.113281 20.960938 50.113281 C 26.03125 50.113281 26.644531 50.039062 27.371094 49.3125 Z M 49.382812 49.246094 C 50.257812 48.429688 50.3125 48.074219 50.3125 43.574219 L 50.3125 38.773438 L 38.339844 26.746094 C 31.753906 20.128906 26.09375 14.488281 25.761719 14.214844 C 25.023438 13.601562 16.015625 13.488281 14.910156 14.078125 C 13.835938 14.648438 13.28125 16.621094 13.292969 19.851562 C 13.308594 24.730469 13.660156 25.535156 17.183594 28.828125 C 18.914062 30.4375 24.503906 35.886719 29.613281 40.9375 L 38.898438 50.113281 L 43.675781 50.113281 C 48.023438 50.113281 48.535156 50.039062 49.382812 49.246094 Z M 49.386719 27.53125 C 50.492188 26.585938 50.519531 26.464844 50.652344 21.691406 C 50.792969 16.585938 50.425781 14.789062 49.101562 14.082031 C 48.714844 13.878906 45.902344 13.675781 42.851562 13.632812 L 37.300781 13.558594 L 36.359375 14.644531 C 34.457031 16.84375 34.875 17.714844 40.570312 23.375 C 46.285156 29.058594 47.132812 29.457031 49.386719 27.53125 Z M 49.386719 27.53125 "/>
<path style=" stroke:none;fill-rule:nonzero;fill:rgb(98.039216%,20.784314%,34.117647%);fill-opacity:1;" d="M 9.832031 62.53125 C 6.5 62.164062 5.007812 61.484375 3.3125 59.566406 C 1.3125 57.300781 1.058594 55.105469 1.34375 42.453125 C 1.484375 36.367188 1.777344 30.917969 1.996094 30.34375 C 2.355469 29.40625 2.605469 29.296875 4.445312 29.296875 C 5.570312 29.296875 6.84375 29.113281 7.273438 28.882812 C 7.816406 28.59375 8.300781 28.601562 8.890625 28.917969 C 9.519531 29.25 10.027344 29.242188 10.886719 28.890625 C 11.808594 28.511719 12.527344 28.539062 14.507812 29.039062 C 17.410156 29.773438 19.613281 31.605469 30.894531 42.671875 C 34.710938 46.421875 38.242188 49.710938 38.742188 49.988281 C 39.304688 50.296875 41.285156 50.492188 43.953125 50.5 C 47.933594 50.515625 48.34375 50.441406 49.386719 49.550781 C 50.476562 48.617188 50.519531 48.433594 50.652344 44.191406 C 50.808594 39.007812 50.613281 38.492188 47.304688 35.304688 C 46.050781 34.09375 44.46875 32.316406 43.796875 31.359375 C 42.695312 29.792969 42.636719 29.558594 43.191406 29.003906 C 43.714844 28.484375 44.101562 28.460938 45.675781 28.851562 C 46.699219 29.109375 47.714844 29.210938 47.933594 29.078125 C 48.710938 28.597656 57.570312 28.625 57.972656 29.109375 C 58.183594 29.363281 58.238281 29.691406 58.09375 29.835938 C 57.945312 29.980469 58.335938 30.097656 58.957031 30.097656 C 59.578125 30.097656 60.320312 29.785156 60.609375 29.398438 C 61.71875 27.90625 62.078125 29.457031 62.421875 37.175781 C 62.949219 49.113281 62.878906 54.078125 62.144531 56.535156 C 61.371094 59.132812 59.261719 61.410156 56.945312 62.148438 C 55.089844 62.742188 14.710938 63.070312 9.832031 62.53125 Z M 26.722656 50.0625 C 27.964844 49.5 28.757812 47.683594 28.394531 46.21875 C 28.230469 45.550781 26.167969 43.164062 23.199219 40.207031 C 18.769531 35.792969 18.136719 35.304688 16.863281 35.304688 C 15.269531 35.304688 13.832031 36.390625 13.453125 37.878906 C 13.324219 38.40625 13.273438 41.027344 13.347656 43.710938 C 13.480469 48.480469 13.507812 48.605469 14.613281 49.550781 C 15.675781 50.457031 16.039062 50.515625 20.734375 50.515625 C 23.585938 50.515625 26.152344 50.320312 26.722656 50.0625 Z M 26.722656 50.0625 "/>
</g>
</svg>
