<?xml version="1.0" encoding="UTF-8"?>
<svg xmlns="http://www.w3.org/2000/svg" xmlns:xlink="http://www.w3.org/1999/xlink" width="32pt" height="32pt" viewBox="0 0 32 32" version="1.1">
<g id="surface1">
<path style=" stroke:none;fill-rule:nonzero;fill:rgb(97.647059%,78.823529%,82.352941%);fill-opacity:1;" d="M 3.722656 31.878906 C 2.800781 31.652344 1.976562 31.164062 1.269531 30.429688 C -0.0390625 29.074219 0 29.53125 0 15.996094 L 0 3.71875 L 0.523438 2.671875 C 1.113281 1.5 1.929688 0.789062 3.210938 0.339844 C 4.507812 -0.113281 27.492188 -0.113281 28.789062 0.339844 C 30.070312 0.789062 30.886719 1.5 31.476562 2.671875 L 32 3.71875 L 32 15.996094 C 32 29.53125 32.039062 29.070312 30.730469 30.429688 C 30.378906 30.796875 29.726562 31.292969 29.28125 31.53125 C 28.484375 31.960938 28.367188 31.964844 16.402344 31.996094 C 9.761719 32.015625 4.054688 31.960938 3.722656 31.878906 Z M 13.171875 24.1875 C 13.433594 24 13.507812 23.773438 13.421875 23.433594 C 13.289062 22.914062 8.867188 18.453125 8.484375 18.453125 C 8.355469 18.453125 8.070312 18.632812 7.847656 18.851562 C 7.496094 19.203125 7.445312 19.519531 7.445312 21.410156 C 7.445312 24.472656 7.429688 24.457031 10.4375 24.457031 C 12.101562 24.457031 12.914062 24.378906 13.171875 24.1875 Z M 24.238281 24.011719 C 24.46875 23.683594 24.554688 23.0625 24.554688 21.664062 L 24.554688 19.761719 L 18.460938 13.703125 L 12.371094 7.644531 L 7.839844 7.644531 L 7.625 8.195312 C 7.507812 8.496094 7.445312 9.53125 7.480469 10.496094 L 7.546875 12.246094 L 19.820312 24.457031 L 21.875 24.457031 C 23.765625 24.457031 23.949219 24.421875 24.238281 24.011719 Z M 24.34375 13.0625 C 24.648438 12.496094 24.613281 8.398438 24.300781 7.988281 C 24.09375 7.714844 23.621094 7.648438 21.589844 7.621094 C 17.667969 7.566406 17.59375 7.933594 20.859375 11.144531 C 23.28125 13.527344 23.910156 13.871094 24.34375 13.0625 Z M 24.34375 13.0625 "/>
<path style=" stroke:none;fill-rule:nonzero;fill:rgb(96.862745%,73.333333%,77.254902%);fill-opacity:1;" d="M 3.621094 31.675781 C 2.242188 31.257812 1.179688 30.375 0.476562 29.0625 C 0.121094 28.398438 0.101562 27.675781 0.101562 16.050781 C 0.101562 3.835938 0.105469 3.734375 0.535156 2.9375 C 1.121094 1.847656 1.945312 1.054688 2.964844 0.601562 C 3.769531 0.242188 4.472656 0.222656 15.988281 0.234375 C 23.921875 0.238281 28.359375 0.316406 28.722656 0.453125 C 29.902344 0.890625 30.789062 1.691406 31.34375 2.816406 L 31.898438 3.941406 L 31.957031 15.621094 C 32.023438 29.128906 32.046875 28.898438 30.40625 30.480469 C 29.746094 31.113281 29.164062 31.46875 28.523438 31.628906 C 27.464844 31.894531 4.488281 31.9375 3.621094 31.675781 Z M 13.28125 24.257812 C 13.503906 24.035156 13.6875 23.707031 13.6875 23.523438 C 13.6875 23.34375 12.625 22.125 11.332031 20.824219 C 9.523438 19.003906 8.855469 18.453125 8.453125 18.453125 C 7.542969 18.453125 7.445312 18.742188 7.445312 21.484375 C 7.445312 24.714844 7.386719 24.65625 10.609375 24.65625 C 12.613281 24.65625 12.929688 24.609375 13.28125 24.257812 Z M 23.890625 24.535156 C 24.546875 24.359375 24.816406 23.292969 24.714844 21.3125 L 24.625 19.617188 L 18.492188 13.53125 L 12.363281 7.441406 L 10.148438 7.441406 C 8.691406 7.441406 7.847656 7.527344 7.6875 7.683594 C 7.53125 7.839844 7.445312 8.683594 7.445312 10.140625 L 7.445312 12.355469 L 13.644531 18.507812 L 19.839844 24.65625 L 21.644531 24.65625 C 22.636719 24.652344 23.644531 24.597656 23.890625 24.535156 Z M 24.503906 13.046875 C 24.863281 12.359375 24.765625 8.238281 24.378906 7.773438 C 24.148438 7.5 23.675781 7.441406 21.542969 7.441406 C 19.253906 7.441406 18.941406 7.484375 18.625 7.835938 C 18.394531 8.085938 18.308594 8.394531 18.382812 8.6875 C 18.449219 8.941406 19.539062 10.167969 20.804688 11.414062 C 22.785156 13.355469 23.191406 13.667969 23.675781 13.613281 C 24.035156 13.570312 24.339844 13.363281 24.503906 13.046875 Z M 24.503906 13.046875 "/>
<path style=" stroke:none;fill-rule:nonzero;fill:rgb(95.686275%,60.392157%,65.882353%);fill-opacity:1;" d="M 3.980469 31.675781 C 2.59375 31.398438 1.375 30.464844 0.707031 29.167969 L 0.101562 27.984375 L 0.164062 16.164062 C 0.195312 9.660156 0.308594 4.015625 0.414062 3.621094 C 0.707031 2.496094 1.667969 1.34375 2.75 0.8125 L 3.722656 0.335938 L 15.394531 0.273438 C 23.496094 0.230469 27.386719 0.28125 28.109375 0.433594 C 29.4375 0.722656 30.65625 1.597656 31.238281 2.6875 L 31.699219 3.539062 L 31.699219 28.589844 L 31.09375 29.554688 C 30.675781 30.226562 30.152344 30.707031 29.382812 31.140625 L 28.277344 31.761719 L 16.503906 31.792969 C 10.027344 31.8125 4.394531 31.757812 3.980469 31.675781 Z M 13.371094 24.34375 C 14.09375 23.625 13.792969 23.078125 11.3125 20.613281 C 8.8125 18.125 8.398438 17.90625 7.648438 18.652344 C 7.289062 19.007812 7.246094 19.320312 7.246094 21.410156 C 7.246094 24.734375 7.171875 24.65625 10.460938 24.65625 C 12.550781 24.65625 13.113281 24.597656 13.371094 24.34375 Z M 24.441406 24.210938 C 24.675781 23.878906 24.753906 23.246094 24.753906 21.691406 L 24.753906 19.617188 L 18.800781 13.648438 C 15.523438 10.363281 12.585938 7.570312 12.269531 7.441406 C 11.914062 7.292969 10.953125 7.230469 9.753906 7.273438 C 7.265625 7.363281 7.246094 7.386719 7.246094 10.230469 L 7.246094 12.339844 L 13.4375 18.5 L 19.628906 24.65625 L 21.878906 24.65625 C 23.976562 24.65625 24.148438 24.625 24.441406 24.210938 Z M 24.351562 13.449219 C 24.710938 13.089844 24.753906 12.78125 24.753906 10.582031 C 24.753906 7.261719 24.84375 7.359375 21.742188 7.277344 C 18.957031 7.199219 18.3125 7.410156 18.3125 8.410156 C 18.3125 8.855469 18.804688 9.449219 20.796875 11.40625 C 22.164062 12.75 23.429688 13.847656 23.617188 13.847656 C 23.800781 13.847656 24.128906 13.667969 24.351562 13.449219 Z M 24.351562 13.449219 "/>
<path style=" stroke:none;fill-rule:nonzero;fill:rgb(94.509804%,46.27451%,53.72549%);fill-opacity:1;" d="M 3.371094 31.378906 C 2.210938 30.964844 1.296875 30.167969 0.777344 29.117188 L 0.300781 28.160156 L 0.242188 16.953125 C 0.207031 10.097656 0.265625 5.238281 0.386719 4.445312 C 0.652344 2.769531 1.371094 1.734375 2.792969 0.996094 L 3.871094 0.4375 L 28.105469 0.4375 L 29.195312 0.988281 C 30.652344 1.722656 31.320312 2.714844 31.601562 4.542969 C 31.738281 5.445312 31.792969 9.921875 31.757812 17.054688 L 31.699219 28.160156 L 31.222656 29.117188 C 30.703125 30.167969 29.789062 30.964844 28.628906 31.378906 C 27.523438 31.769531 4.476562 31.769531 3.371094 31.378906 Z M 13.445312 24.449219 C 14.296875 23.660156 14.058594 23.203125 11.394531 20.488281 C 9.199219 18.257812 8.671875 17.925781 7.90625 18.292969 C 7.179688 18.644531 6.988281 19.503906 7.082031 22.027344 C 7.183594 24.828125 7.21875 24.855469 10.550781 24.855469 C 12.742188 24.855469 13.054688 24.8125 13.445312 24.449219 Z M 24.378906 24.476562 C 24.789062 24.144531 24.859375 23.886719 24.925781 22.46875 C 24.964844 21.578125 24.941406 20.554688 24.871094 20.199219 C 24.773438 19.695312 23.414062 18.207031 18.664062 13.398438 L 12.578125 7.242188 L 10.226562 7.242188 C 7.0625 7.242188 6.945312 7.367188 7.074219 10.640625 L 7.144531 12.453125 L 13.390625 18.65625 L 19.636719 24.855469 L 21.769531 24.855469 C 23.570312 24.855469 23.980469 24.796875 24.378906 24.476562 Z M 24.273438 13.695312 C 24.785156 13.355469 24.957031 12.574219 24.957031 10.570312 C 24.957031 8.355469 24.789062 7.574219 24.269531 7.378906 C 24.09375 7.3125 22.816406 7.242188 21.429688 7.222656 C 19.261719 7.195312 18.851562 7.238281 18.511719 7.546875 C 17.691406 8.285156 17.957031 8.785156 20.574219 11.394531 C 23.015625 13.828125 23.5625 14.167969 24.273438 13.695312 Z M 24.273438 13.695312 "/>
<path style=" stroke:none;fill-rule:nonzero;fill:rgb(95.294118%,31.764706%,41.176471%);fill-opacity:1;" d="M 4.730469 31.476562 C 2.785156 31.238281 1.675781 30.542969 0.878906 29.0625 C 0.523438 28.398438 0.503906 27.695312 0.503906 16.148438 L 0.503906 3.941406 L 0.96875 3 C 1.480469 1.96875 2.828125 0.925781 3.902344 0.734375 C 4.246094 0.671875 9.925781 0.648438 16.519531 0.679688 L 28.511719 0.738281 L 29.484375 1.339844 C 30.179688 1.765625 30.609375 2.226562 30.980469 2.941406 L 31.496094 3.941406 L 31.558594 15.648438 C 31.605469 24.007812 31.558594 27.589844 31.394531 28.160156 C 30.988281 29.574219 30.261719 30.449219 29.015625 31.03125 L 27.875 31.5625 L 16.90625 31.59375 C 10.871094 31.609375 5.394531 31.554688 4.730469 31.476562 Z M 13.160156 24.832031 C 13.433594 24.707031 13.765625 24.351562 13.894531 24.039062 C 14.222656 23.25 13.804688 22.636719 11.210938 20.101562 C 9.402344 18.332031 9.023438 18.050781 8.449219 18.050781 C 7.179688 18.050781 7.042969 18.375 7.042969 21.453125 C 7.042969 25.046875 7.011719 25.015625 10.507812 25.042969 C 11.714844 25.050781 12.878906 24.957031 13.160156 24.832031 Z M 24.53125 24.574219 C 24.917969 24.230469 24.957031 23.980469 24.957031 21.816406 L 24.957031 19.441406 L 18.765625 13.238281 L 12.578125 7.035156 L 10.234375 7.039062 C 6.953125 7.042969 6.941406 7.058594 6.957031 10.140625 L 6.96875 12.46875 L 12.890625 18.382812 C 16.152344 21.636719 19.089844 24.472656 19.421875 24.6875 C 19.9375 25.019531 20.320312 25.066406 22.066406 25.015625 C 23.738281 24.96875 24.1875 24.886719 24.53125 24.574219 Z M 24.542969 13.660156 C 25.074219 13.132812 25.207031 12.246094 25.125 9.84375 C 25.03125 7.0625 25.003906 7.042969 21.476562 7.042969 C 19.050781 7.042969 18.808594 7.078125 18.378906 7.476562 C 17.449219 8.34375 17.683594 8.796875 20.476562 11.53125 C 23.222656 14.214844 23.722656 14.476562 24.542969 13.660156 Z M 24.542969 13.660156 "/>
<path style=" stroke:none;fill-rule:nonzero;fill:rgb(98.039216%,27.45098%,36.078431%);fill-opacity:1;" d="M 3.789062 31.183594 C 2.582031 30.859375 1.566406 30.085938 1.085938 29.121094 C 0.726562 28.402344 0.703125 27.730469 0.703125 16.449219 C 0.703125 7.464844 0.765625 4.335938 0.957031 3.714844 C 1.277344 2.667969 2.691406 1.339844 3.800781 1.042969 C 4.359375 0.894531 8.347656 0.84375 16.445312 0.882812 L 28.277344 0.9375 L 29.253906 1.507812 C 30.03125 1.964844 30.339844 2.308594 30.761719 3.210938 L 31.296875 4.339844 L 31.296875 28.359375 L 30.839844 29.210938 C 30.304688 30.207031 29.246094 30.960938 27.976562 31.246094 C 26.582031 31.5625 4.992188 31.507812 3.789062 31.183594 Z M 13.6875 24.65625 C 13.941406 24.402344 14.089844 23.988281 14.089844 23.515625 C 14.089844 22.832031 13.886719 22.574219 11.613281 20.3125 C 9.421875 18.132812 9.0625 17.851562 8.457031 17.851562 C 8.03125 17.851562 7.597656 18.015625 7.308594 18.285156 C 6.867188 18.699219 6.84375 18.859375 6.84375 21.363281 C 6.84375 23.730469 6.886719 24.058594 7.261719 24.53125 C 7.675781 25.054688 7.691406 25.058594 10.480469 25.058594 C 13.015625 25.058594 13.320312 25.019531 13.6875 24.65625 Z M 24.691406 24.621094 C 25.128906 24.214844 25.15625 24.035156 25.15625 21.789062 L 25.15625 19.386719 L 19.167969 13.371094 C 15.875 10.0625 13.046875 7.246094 12.878906 7.105469 C 12.511719 6.800781 8.007812 6.742188 7.453125 7.039062 C 6.917969 7.324219 6.640625 8.3125 6.644531 9.925781 C 6.65625 12.363281 6.828125 12.769531 8.59375 14.414062 C 9.457031 15.21875 12.253906 17.945312 14.804688 20.46875 L 19.449219 25.058594 L 21.835938 25.058594 C 24.011719 25.058594 24.265625 25.019531 24.691406 24.621094 Z M 24.691406 13.765625 C 25.246094 13.292969 25.257812 13.230469 25.324219 10.847656 C 25.394531 8.292969 25.214844 7.394531 24.550781 7.042969 C 24.359375 6.9375 22.953125 6.835938 21.425781 6.816406 L 18.648438 6.78125 L 18.179688 7.324219 C 17.230469 8.421875 17.4375 8.855469 20.285156 11.6875 C 23.140625 14.53125 23.566406 14.730469 24.691406 13.765625 Z M 24.691406 13.765625 "/>
<path style=" stroke:none;fill-rule:nonzero;fill:rgb(98.039216%,20.784314%,34.117647%);fill-opacity:1;" d="M 4.917969 31.265625 C 3.25 31.082031 2.503906 30.742188 1.65625 29.785156 C 0.65625 28.648438 0.53125 27.550781 0.671875 21.226562 C 0.742188 18.183594 0.886719 15.460938 0.996094 15.171875 C 1.175781 14.703125 1.304688 14.648438 2.222656 14.648438 C 2.785156 14.648438 3.421875 14.554688 3.636719 14.441406 C 3.910156 14.296875 4.152344 14.300781 4.445312 14.457031 C 4.757812 14.625 5.015625 14.621094 5.441406 14.445312 C 5.902344 14.253906 6.265625 14.269531 7.253906 14.519531 C 8.703125 14.886719 9.804688 15.804688 15.445312 21.335938 C 17.355469 23.210938 19.121094 24.855469 19.371094 24.992188 C 19.652344 25.148438 20.644531 25.246094 21.976562 25.25 C 23.964844 25.257812 24.171875 25.222656 24.691406 24.773438 C 25.238281 24.308594 25.261719 24.21875 25.324219 22.097656 C 25.40625 19.503906 25.308594 19.246094 23.652344 17.652344 C 23.023438 17.046875 22.234375 16.160156 21.898438 15.679688 C 21.347656 14.898438 21.316406 14.777344 21.597656 14.5 C 21.859375 14.242188 22.050781 14.230469 22.835938 14.425781 C 23.351562 14.554688 23.859375 14.605469 23.964844 14.539062 C 24.355469 14.300781 28.785156 14.3125 28.984375 14.554688 C 29.09375 14.683594 29.121094 14.84375 29.046875 14.917969 C 28.972656 14.988281 29.167969 15.050781 29.480469 15.050781 C 29.789062 15.050781 30.160156 14.890625 30.304688 14.699219 C 30.859375 13.953125 31.039062 14.726562 31.210938 18.585938 C 31.476562 24.554688 31.441406 27.039062 31.074219 28.269531 C 30.6875 29.566406 29.632812 30.703125 28.472656 31.074219 C 27.542969 31.371094 7.355469 31.535156 4.917969 31.265625 Z M 13.359375 25.03125 C 13.984375 24.75 14.378906 23.839844 14.199219 23.109375 C 14.113281 22.773438 13.085938 21.582031 11.601562 20.101562 C 9.386719 17.894531 9.070312 17.652344 8.433594 17.652344 C 7.632812 17.652344 6.914062 18.195312 6.726562 18.941406 C 6.660156 19.203125 6.636719 20.515625 6.675781 21.855469 C 6.742188 24.242188 6.753906 24.300781 7.308594 24.773438 C 7.839844 25.230469 8.019531 25.257812 10.367188 25.257812 C 11.792969 25.257812 13.074219 25.160156 13.359375 25.03125 Z M 13.359375 25.03125 "/>
</g>
</svg>
