<?xml version="1.0" encoding="UTF-8"?>
<svg xmlns="http://www.w3.org/2000/svg" xmlns:xlink="http://www.w3.org/1999/xlink" width="128pt" height="128pt" viewBox="0 0 128 128" version="1.1">
<g id="surface1">
<path style=" stroke:none;fill-rule:nonzero;fill:rgb(97.647059%,78.823529%,82.352941%);fill-opacity:1;" d="M 14.894531 127.519531 C 11.199219 126.601562 7.910156 124.65625 5.074219 121.714844 C -0.160156 116.289062 0 118.117188 0 63.984375 L 0 14.875 L 2.097656 10.691406 C 4.449219 5.996094 7.710938 3.164062 12.835938 1.363281 C 18.023438 -0.453125 109.976562 -0.453125 115.164062 1.363281 C 120.289062 3.164062 123.550781 5.996094 125.902344 10.691406 L 128 14.875 L 128 63.984375 C 128 118.117188 128.160156 116.289062 122.925781 121.71875 C 121.511719 123.1875 118.902344 125.167969 117.132812 126.121094 C 113.941406 127.835938 113.464844 127.855469 65.609375 127.984375 C 39.042969 128.058594 16.222656 127.847656 14.894531 127.519531 Z M 52.695312 96.75 C 53.730469 95.996094 54.027344 95.097656 53.683594 93.734375 C 53.160156 91.648438 35.476562 73.808594 33.933594 73.808594 C 33.425781 73.808594 32.28125 74.527344 31.398438 75.410156 C 29.984375 76.8125 29.785156 78.078125 29.785156 85.640625 C 29.785156 97.890625 29.722656 97.828125 41.753906 97.828125 C 48.40625 97.828125 51.652344 97.507812 52.695312 96.75 Z M 96.960938 96.046875 C 97.882812 94.742188 98.214844 92.25 98.214844 86.65625 L 98.214844 79.042969 L 49.480469 30.574219 L 31.355469 30.574219 L 30.507812 32.773438 C 30.039062 33.984375 29.777344 38.128906 29.921875 41.976562 L 30.1875 48.980469 L 54.738281 73.402344 L 79.285156 97.828125 L 87.496094 97.828125 C 95.070312 97.828125 95.804688 97.691406 96.960938 96.046875 Z M 97.378906 52.242188 C 98.59375 49.988281 98.453125 33.601562 97.207031 31.953125 C 96.375 30.855469 94.480469 30.597656 86.359375 30.480469 C 70.679688 30.257812 70.371094 31.742188 83.4375 44.582031 C 93.128906 54.101562 95.636719 55.480469 97.378906 52.242188 Z M 97.378906 52.242188 "/>
<path style=" stroke:none;fill-rule:nonzero;fill:rgb(96.862745%,73.333333%,77.254902%);fill-opacity:1;" d="M 14.484375 126.703125 C 8.964844 125.035156 4.722656 121.507812 1.902344 116.242188 C 0.484375 113.597656 0.402344 110.707031 0.402344 64.199219 C 0.402344 15.347656 0.417969 14.933594 2.132812 11.746094 C 4.484375 7.386719 7.78125 4.214844 11.855469 2.402344 C 15.074219 0.972656 17.894531 0.890625 63.957031 0.929688 C 95.683594 0.957031 113.433594 1.261719 114.894531 1.804688 C 119.609375 3.5625 123.152344 6.761719 125.375 11.261719 L 127.597656 15.761719 L 127.828125 62.488281 C 128.097656 116.515625 128.195312 115.59375 121.625 121.917969 C 118.992188 124.453125 116.660156 125.878906 114.09375 126.523438 C 109.859375 127.582031 17.945312 127.75 14.484375 126.703125 Z M 53.132812 97.027344 C 54.019531 96.148438 54.742188 94.828125 54.742188 94.097656 C 54.742188 93.371094 50.503906 88.503906 45.324219 83.289062 C 38.09375 76.007812 35.421875 73.808594 33.8125 73.808594 C 30.171875 73.808594 29.785156 74.964844 29.785156 85.933594 C 29.785156 98.863281 29.554688 98.628906 42.445312 98.628906 C 50.449219 98.628906 51.710938 98.4375 53.132812 97.027344 Z M 95.5625 98.132812 C 98.183594 97.433594 99.269531 93.179688 98.851562 85.246094 L 98.496094 78.46875 L 49.457031 29.773438 L 40.585938 29.773438 C 34.761719 29.773438 31.386719 30.101562 30.753906 30.734375 C 30.117188 31.363281 29.785156 34.730469 29.785156 40.558594 L 29.785156 49.421875 L 54.570312 74.027344 L 79.355469 98.628906 L 86.570312 98.617188 C 90.539062 98.609375 94.585938 98.394531 95.5625 98.132812 Z M 98.015625 52.191406 C 99.457031 49.441406 99.0625 32.949219 97.511719 31.09375 C 96.589844 29.992188 94.699219 29.773438 86.164062 29.773438 C 77.015625 29.773438 75.769531 29.941406 74.496094 31.339844 C 73.585938 32.339844 73.234375 33.582031 73.53125 34.757812 C 73.789062 35.773438 78.152344 40.679688 83.226562 45.65625 C 91.144531 53.429688 92.773438 54.675781 94.710938 54.453125 C 96.136719 54.289062 97.355469 53.457031 98.015625 52.191406 Z M 98.015625 52.191406 "/>
<path style=" stroke:none;fill-rule:nonzero;fill:rgb(95.686275%,60.392157%,65.882353%);fill-opacity:1;" d="M 15.921875 126.707031 C 10.371094 125.601562 5.5 121.867188 2.832031 116.667969 L 0.402344 111.9375 L 0.652344 64.652344 C 0.789062 38.640625 1.238281 16.066406 1.65625 14.484375 C 2.835938 9.988281 6.675781 5.375 10.996094 3.257812 L 14.894531 1.347656 L 61.585938 1.097656 C 93.976562 0.921875 109.550781 1.117188 112.441406 1.742188 C 117.75 2.882812 122.617188 6.386719 124.957031 10.746094 L 126.792969 14.160156 L 126.792969 114.367188 L 124.375 118.222656 C 122.695312 120.90625 120.613281 122.835938 117.535156 124.566406 L 113.105469 127.050781 L 66.011719 127.175781 C 40.109375 127.246094 17.570312 127.035156 15.921875 126.707031 Z M 53.476562 97.371094 C 56.367188 94.496094 55.167969 92.320312 45.246094 82.453125 C 35.246094 72.503906 33.59375 71.621094 30.589844 74.609375 C 29.164062 76.027344 28.980469 77.277344 28.980469 85.640625 C 28.980469 98.929688 28.683594 98.628906 41.851562 98.628906 C 50.195312 98.628906 52.457031 98.382812 53.476562 97.371094 Z M 97.765625 96.847656 C 98.703125 95.515625 99.019531 92.984375 99.019531 86.769531 L 99.019531 78.46875 L 75.199219 54.589844 C 62.097656 41.453125 50.34375 30.28125 49.082031 29.761719 C 47.664062 29.175781 43.808594 28.921875 39.023438 29.09375 C 29.070312 29.453125 28.980469 29.554688 28.980469 40.921875 L 28.980469 49.359375 L 53.75 73.996094 L 78.519531 98.628906 L 87.515625 98.628906 C 95.898438 98.628906 96.597656 98.507812 97.765625 96.847656 Z M 97.410156 53.792969 C 98.84375 52.363281 99.019531 51.125 99.019531 42.335938 C 99.019531 29.042969 99.382812 29.445312 86.972656 29.105469 C 75.824219 28.796875 73.257812 29.644531 73.257812 33.636719 C 73.257812 35.417969 75.222656 37.792969 83.191406 45.625 C 88.65625 51 93.726562 55.394531 94.460938 55.394531 C 95.195312 55.394531 96.523438 54.671875 97.410156 53.792969 Z M 97.410156 53.792969 "/>
<path style=" stroke:none;fill-rule:nonzero;fill:rgb(94.509804%,46.27451%,53.72549%);fill-opacity:1;" d="M 13.484375 125.507812 C 8.84375 123.863281 5.1875 120.675781 3.101562 116.464844 L 1.207031 112.640625 L 0.972656 67.808594 C 0.832031 40.386719 1.054688 20.960938 1.554688 17.785156 C 2.605469 11.070312 5.480469 6.945312 11.175781 3.984375 L 15.480469 1.75 L 112.414062 1.75 L 116.78125 3.953125 C 122.605469 6.886719 125.289062 10.855469 126.402344 18.175781 C 126.953125 21.78125 127.175781 39.6875 127.027344 68.214844 L 126.792969 112.640625 L 124.898438 116.464844 C 122.8125 120.675781 119.15625 123.863281 114.515625 125.507812 C 110.097656 127.078125 17.902344 127.078125 13.484375 125.507812 Z M 53.785156 97.796875 C 57.1875 94.644531 56.234375 92.808594 45.574219 81.957031 C 36.804688 73.035156 34.683594 71.699219 31.621094 73.175781 C 28.710938 74.578125 27.953125 78.019531 28.320312 88.109375 C 28.734375 99.308594 28.882812 99.429688 42.203125 99.429688 C 50.972656 99.429688 52.210938 99.253906 53.785156 97.796875 Z M 97.511719 97.90625 C 99.15625 96.578125 99.441406 95.546875 99.699219 89.882812 C 99.863281 86.304688 99.769531 82.214844 99.492188 80.796875 C 99.097656 78.777344 93.664062 72.824219 74.648438 53.59375 L 50.3125 28.972656 L 40.910156 28.972656 C 28.246094 28.972656 27.785156 29.464844 28.296875 42.570312 L 28.578125 49.8125 L 53.5625 74.621094 L 78.542969 99.429688 L 87.082031 99.429688 C 94.273438 99.429688 95.917969 99.1875 97.511719 97.90625 Z M 97.085938 54.78125 C 99.140625 53.417969 99.824219 50.292969 99.824219 42.289062 C 99.824219 33.421875 99.152344 30.300781 97.070312 29.507812 C 96.375 29.242188 91.269531 28.964844 85.722656 28.890625 C 77.042969 28.777344 75.414062 28.957031 74.042969 30.191406 C 70.761719 33.144531 71.832031 35.132812 82.300781 45.574219 C 92.070312 55.3125 94.246094 56.667969 97.085938 54.78125 Z M 97.085938 54.78125 "/>
<path style=" stroke:none;fill-rule:nonzero;fill:rgb(95.294118%,31.764706%,41.176471%);fill-opacity:1;" d="M 18.917969 125.898438 C 11.140625 124.953125 6.703125 122.167969 3.519531 116.242188 C 2.09375 113.59375 2.011719 110.78125 2.011719 64.601562 L 2.011719 15.761719 L 3.875 12 C 5.917969 7.875 11.316406 3.703125 15.613281 2.929688 C 16.988281 2.683594 39.695312 2.585938 66.078125 2.714844 L 114.039062 2.949219 L 117.941406 5.351562 C 120.722656 7.0625 122.445312 8.910156 123.917969 11.757812 L 125.988281 15.761719 L 126.238281 62.597656 C 126.417969 96.027344 126.230469 110.355469 125.570312 112.640625 C 123.949219 118.289062 121.039062 121.800781 116.066406 124.121094 L 111.496094 126.25 L 67.621094 126.367188 C 43.492188 126.433594 21.574219 126.222656 18.917969 125.898438 Z M 52.636719 99.324219 C 53.734375 98.828125 55.058594 97.402344 55.578125 96.152344 C 56.890625 93.003906 55.214844 90.550781 44.851562 80.414062 C 37.609375 73.332031 36.09375 72.207031 33.789062 72.207031 C 28.710938 72.207031 28.175781 73.503906 28.175781 85.816406 C 28.175781 100.191406 28.054688 100.0625 42.023438 100.167969 C 46.859375 100.203125 51.515625 99.832031 52.636719 99.324219 Z M 98.132812 98.304688 C 99.667969 96.917969 99.824219 95.914062 99.824219 87.273438 L 99.824219 77.765625 L 50.316406 28.140625 L 40.945312 28.15625 C 27.816406 28.175781 27.757812 28.234375 27.820312 40.554688 L 27.871094 49.875 L 51.570312 73.53125 C 64.605469 86.542969 76.355469 97.890625 77.683594 98.746094 C 79.75 100.074219 81.289062 100.265625 88.269531 100.066406 C 94.957031 99.871094 96.746094 99.554688 98.132812 98.304688 Z M 98.167969 54.636719 C 100.292969 52.523438 100.835938 48.992188 100.503906 39.371094 C 100.125 28.25 100.023438 28.171875 85.898438 28.171875 C 76.199219 28.171875 75.226562 28.308594 73.511719 29.914062 C 69.800781 33.378906 70.738281 35.183594 81.910156 46.117188 C 92.882812 56.855469 94.886719 57.902344 98.167969 54.636719 Z M 98.167969 54.636719 "/>
<path style=" stroke:none;fill-rule:nonzero;fill:rgb(98.039216%,27.45098%,36.078431%);fill-opacity:1;" d="M 15.152344 124.734375 C 10.324219 123.441406 6.269531 120.347656 4.339844 116.488281 C 2.898438 113.601562 2.816406 110.914062 2.816406 65.800781 C 2.816406 29.863281 3.066406 17.351562 3.828125 14.859375 C 5.109375 10.679688 10.761719 5.367188 15.199219 4.175781 C 17.4375 3.578125 33.390625 3.371094 65.789062 3.527344 L 113.105469 3.75 L 117.011719 6.035156 C 120.121094 7.851562 121.351562 9.242188 123.050781 12.839844 L 125.183594 17.363281 L 125.183594 113.441406 L 123.355469 116.84375 C 121.214844 120.828125 116.976562 123.839844 111.898438 124.992188 C 106.324219 126.253906 19.96875 126.023438 15.152344 124.734375 Z M 54.742188 98.628906 C 55.773438 97.601562 56.351562 95.960938 56.351562 94.058594 C 56.351562 91.332031 55.554688 90.300781 46.457031 81.25 C 37.6875 72.527344 36.246094 71.40625 33.828125 71.40625 C 32.132812 71.40625 30.390625 72.066406 29.234375 73.148438 C 27.46875 74.796875 27.371094 75.445312 27.371094 85.449219 C 27.371094 94.921875 27.542969 96.226562 29.039062 98.121094 C 30.699219 100.21875 30.765625 100.230469 41.921875 100.230469 C 52.058594 100.230469 53.285156 100.078125 54.742188 98.628906 Z M 98.765625 98.488281 C 100.511719 96.855469 100.628906 96.148438 100.628906 87.148438 L 100.628906 77.546875 L 76.679688 53.488281 C 63.507812 40.257812 52.1875 28.980469 51.523438 28.425781 C 50.046875 27.199219 32.035156 26.972656 29.816406 28.15625 C 27.667969 29.296875 26.5625 33.246094 26.585938 39.699219 C 26.617188 49.457031 27.320312 51.074219 34.371094 57.652344 C 37.828125 60.878906 49.011719 71.777344 59.226562 81.875 L 77.796875 100.230469 L 87.347656 100.230469 C 96.050781 100.230469 97.070312 100.074219 98.765625 98.488281 Z M 98.773438 55.0625 C 100.984375 53.175781 101.035156 52.929688 101.300781 43.386719 C 101.585938 33.175781 100.851562 29.574219 98.203125 28.164062 C 97.429688 27.753906 91.804688 27.351562 85.699219 27.269531 L 74.601562 27.117188 L 72.722656 29.289062 C 68.917969 33.691406 69.753906 35.425781 81.140625 46.753906 C 92.570312 58.121094 94.265625 58.917969 98.773438 55.0625 Z M 98.773438 55.0625 "/>
<path style=" stroke:none;fill-rule:nonzero;fill:rgb(98.039216%,20.784314%,34.117647%);fill-opacity:1;" d="M 19.664062 125.066406 C 13.003906 124.332031 10.015625 122.972656 6.628906 119.132812 C 2.625 114.601562 2.121094 110.210938 2.691406 84.90625 C 2.964844 72.738281 3.550781 61.839844 3.992188 60.6875 C 4.707031 58.8125 5.210938 58.597656 8.890625 58.597656 C 11.144531 58.597656 13.6875 58.222656 14.542969 57.765625 C 15.632812 57.1875 16.605469 57.207031 17.785156 57.835938 C 19.035156 58.5 20.054688 58.488281 21.769531 57.78125 C 23.617188 57.019531 25.058594 57.082031 29.011719 58.078125 C 34.816406 59.542969 39.226562 63.210938 61.785156 85.347656 C 69.421875 92.839844 76.488281 99.421875 77.484375 99.972656 C 78.605469 100.59375 82.570312 100.984375 87.90625 101.003906 C 95.863281 101.027344 96.683594 100.882812 98.773438 99.101562 C 100.953125 97.234375 101.039062 96.867188 101.300781 88.382812 C 101.621094 78.015625 101.230469 76.980469 94.613281 70.605469 C 92.097656 68.183594 88.941406 64.636719 87.59375 62.71875 C 85.390625 59.585938 85.269531 59.117188 86.386719 58.007812 C 87.433594 56.964844 88.207031 56.917969 91.351562 57.707031 C 93.398438 58.21875 95.433594 58.421875 95.867188 58.152344 C 97.425781 57.195312 115.136719 57.253906 115.941406 58.21875 C 116.367188 58.726562 116.476562 59.378906 116.183594 59.671875 C 115.894531 59.960938 116.671875 60.199219 117.914062 60.199219 C 119.15625 60.199219 120.644531 59.566406 121.214844 58.796875 C 123.433594 55.808594 124.15625 58.914062 124.84375 74.347656 C 125.902344 98.226562 125.761719 108.15625 124.292969 113.074219 C 122.742188 118.261719 118.523438 122.816406 113.894531 124.296875 C 110.179688 125.484375 29.425781 126.140625 19.664062 125.066406 Z M 53.441406 100.125 C 55.929688 98.996094 57.515625 95.363281 56.789062 92.4375 C 56.460938 91.101562 52.335938 86.332031 46.398438 80.414062 C 37.539062 71.585938 36.277344 70.605469 33.726562 70.605469 C 30.539062 70.605469 27.660156 72.78125 26.910156 75.761719 C 26.644531 76.808594 26.550781 82.054688 26.699219 87.417969 C 26.964844 96.964844 27.015625 97.210938 29.226562 99.101562 C 31.351562 100.914062 32.082031 101.03125 41.464844 101.03125 C 47.167969 101.03125 52.300781 100.644531 53.441406 100.125 Z M 53.441406 100.125 "/>
</g>
</svg>
